<?xml version="1.0" encoding="UTF-8" standalone="no"?>
<!DOCTYPE svg PUBLIC "-//W3C//DTD SVG 1.1//EN" "http://www.w3.org/Graphics/SVG/1.1/DTD/svg11.dtd">
<svg width="100%" height="100%" viewBox="0 0 639 276" version="1.1" xmlns="http://www.w3.org/2000/svg" xmlns:xlink="http://www.w3.org/1999/xlink" xml:space="preserve" xmlns:serif="http://www.serif.com/" style="fill-rule:evenodd;clip-rule:evenodd;stroke-linejoin:round;stroke-miterlimit:2;">
    <g transform="matrix(1,0,0,1,-978.73,-79.567)">
        <g transform="matrix(1.32375,0,0,1,838,2.84217e-14)">
            <g id="step-1" transform="matrix(0.75543,0,0,1,6.04344,-1)">
                <g transform="matrix(5.22727,0,0,0.686275,-734.997,-207.668)">
                    <rect x="166" y="420" width="88" height="51" style="fill:rgb(43,239,179);fill-opacity:0;"/>
                </g>
                <g transform="matrix(1,0,0,1,132.73,90.6144)">
                    <g id="step-11" serif:id="step-1">
                        <text x="0px" y="12px" style="font-family:'RobotoMono-Regular', 'Roboto Mono', monospace;font-size:16px;fill:rgb(255,130,130);">i<tspan x="10.802px 21.603px 32.405px 43.206px 54.008px " y="12px 12px 12px 12px 12px ">mport</tspan></text>
                        <text x="75.611px" y="12px" style="font-family:'RobotoMono-Regular', 'Roboto Mono', monospace;font-size:16px;fill:rgb(178,178,178);">{</text>
                        <text x="97.214px" y="12px" style="font-family:'RobotoMono-Regular', 'Roboto Mono', monospace;font-size:16px;fill:rgb(255,233,162);">u<tspan x="108.016px 118.817px 129.619px 140.42px 151.222px 162.023px 172.825px " y="12px 12px 12px 12px 12px 12px 12px ">seState</tspan></text>
                        <text x="194.428px" y="12px" style="font-family:'RobotoMono-Regular', 'Roboto Mono', monospace;font-size:16px;fill:rgb(178,178,178);">}</text>
                        <text x="216.031px" y="12px" style="font-family:'RobotoMono-Regular', 'Roboto Mono', monospace;font-size:16px;fill:rgb(255,130,130);"><tspan x="216.031px 226.833px 237.634px 248.436px " y="12px 12px 12px 12px ">from</tspan></text>
                        <text x="270.039px" y="12px" style="font-family:'RobotoMono-Regular', 'Roboto Mono', monospace;font-size:16px;fill:rgb(178,178,178);">&quot;</text>
                        <text x="280.841px" y="12px" style="font-family:'RobotoMono-Regular', 'Roboto Mono', monospace;font-size:16px;fill:white;">a<tspan x="291.642px 302.444px 313.245px 324.047px 334.848px 345.65px " y="12px 12px 12px 12px 12px 12px ">tomico</tspan></text>
                        <text x="356.452px" y="12px" style="font-family:'RobotoMono-Regular', 'Roboto Mono', monospace;font-size:16px;fill:rgb(178,178,178);">&quot;</text>
                    </g>
                </g>
            </g>
            <g transform="matrix(0.75543,0,0,1,106.312,144.567)">
                <g id="step-2">
                    <g id="step-21" serif:id="step-2">
                        <text x="0px" y="12px" style="font-family:'RobotoMono-Regular', 'Roboto Mono', monospace;font-size:16px;fill:rgb(255,130,130);">f<tspan x="10.802px 21.603px 32.405px 43.206px 54.008px 64.809px 75.611px " y="12px 12px 12px 12px 12px 12px 12px ">unction</tspan></text>
                        <text x="97.214px" y="12px" style="font-family:'RobotoMono-Regular', 'Roboto Mono', monospace;font-size:16px;fill:rgb(43,239,179);">c<tspan x="108.016px 118.817px 129.619px 140.42px 151.222px 162.023px 172.825px 183.627px " y="12px 12px 12px 12px 12px 12px 12px 12px ">omponent</tspan></text>
                        <text x="194.428px" y="12px" style="font-family:'RobotoMono-Regular', 'Roboto Mono', monospace;font-size:16px;fill:rgb(178,178,178);">(</text>
                        <text x="205.23px" y="12px" style="font-family:'RobotoMono-Regular', 'Roboto Mono', monospace;font-size:16px;fill:white;">)</text>
                        <text x="216.031px" y="12px" style="font-family:'RobotoMono-Regular', 'Roboto Mono', monospace;font-size:16px;fill:rgb(178,178,178);">{</text>
                        <text x="36px" y="40px" style="font-family:'RobotoMono-Regular', 'Roboto Mono', monospace;font-size:16px;fill:rgb(255,130,130);">c<tspan x="46.802px 57.603px 68.405px 79.206px " y="40px 40px 40px 40px ">onst</tspan></text>
                        <text x="100.809px" y="40px" style="font-family:'RobotoMono-Regular', 'Roboto Mono', monospace;font-size:16px;fill:rgb(178,178,178);"><tspan x="100.809px " y="40px ">[</tspan></text>
                        <text x="122.413px" y="40px" style="font-family:'RobotoMono-Regular', 'Roboto Mono', monospace;font-size:16px;fill:rgb(255,233,162);">v<tspan x="133.214px 144.016px 154.817px 165.619px " y="40px 40px 40px 40px ">alue</tspan></text>
                        <text x="176.42px" y="40px" style="font-family:'RobotoMono-Regular', 'Roboto Mono', monospace;font-size:16px;fill:rgb(178,178,178);">,</text>
                        <text x="198.023px" y="40px" style="font-family:'RobotoMono-Regular', 'Roboto Mono', monospace;font-size:16px;fill:rgb(255,233,162);">s<tspan x="208.825px 219.627px 230.428px 241.23px 252.031px 262.833px 273.634px " y="40px 40px 40px 40px 40px 40px 40px ">etValue</tspan></text>
                        <text x="295.237px" y="40px" style="font-family:'RobotoMono-Regular', 'Roboto Mono', monospace;font-size:16px;fill:rgb(178,178,178);"><tspan x="295.237px 306.039px 316.841px " y="40px 40px 40px ">] =</tspan></text>
                        <text x="338.444px" y="40px" style="font-family:'RobotoMono-Regular', 'Roboto Mono', monospace;font-size:16px;fill:rgb(255,233,162);">u<tspan x="349.245px 360.047px 370.848px 381.65px 392.452px 403.253px 414.055px " y="40px 40px 40px 40px 40px 40px 40px ">seState</tspan></text>
                        <text x="424.856px" y="40px" style="font-family:'RobotoMono-Regular', 'Roboto Mono', monospace;font-size:16px;fill:rgb(178,178,178);">(<tspan x="435.658px 446.459px 457.261px " y="40px 40px 40px ">0);</tspan></text>
                        <text x="36px" y="68px" style="font-family:'RobotoMono-Regular', 'Roboto Mono', monospace;font-size:16px;fill:rgb(255,130,130);"><tspan x="36px 46.802px 57.603px 68.405px 79.206px 90.008px " y="68px 68px 68px 68px 68px 68px ">return</tspan></text>
                        <text x="111.611px" y="68px" style="font-family:'RobotoMono-Regular', 'Roboto Mono', monospace;font-size:16px;fill:rgb(119,178,176);">&lt;</text>
                        <text x="122.413px" y="68px" style="font-family:'RobotoMono-Regular', 'Roboto Mono', monospace;font-size:16px;fill:rgb(171,255,252);">h<tspan x="133.214px 144.016px 154.817px " y="68px 68px 68px ">ost</tspan></text>
                        <text x="165.619px" y="68px" style="font-family:'RobotoMono-Regular', 'Roboto Mono', monospace;font-size:16px;fill:rgb(119,178,176);">&gt;</text>
                        <text x="79.206px" y="96px" style="font-family:'RobotoMono-Regular', 'Roboto Mono', monospace;font-size:16px;fill:rgb(119,178,176);"><tspan x="79.206px " y="96px ">&lt;</tspan></text>
                        <text x="90.008px" y="96px" style="font-family:'RobotoMono-Regular', 'Roboto Mono', monospace;font-size:16px;fill:rgb(171,255,252);">b<tspan x="100.809px 111.611px 122.413px 133.214px 144.016px " y="96px 96px 96px 96px 96px ">utton</tspan></text>
                        <text x="165.619px" y="96px" style="font-family:'RobotoMono-Regular', 'Roboto Mono', monospace;font-size:16px;fill:rgb(43,239,179);">o<tspan x="176.42px 187.222px 198.023px 208.825px 219.627px 230.428px " y="96px 96px 96px 96px 96px 96px ">nclick</tspan></text>
                        <text x="241.23px" y="96px" style="font-family:'RobotoMono-Regular', 'Roboto Mono', monospace;font-size:16px;fill:rgb(171,255,252);">=</text>
                        <text x="252.031px" y="96px" style="font-family:'RobotoMono-Regular', 'Roboto Mono', monospace;font-size:16px;fill:rgb(178,178,178);">{</text>
                        <text x="262.833px" y="96px" style="font-family:'RobotoMono-Regular', 'Roboto Mono', monospace;font-size:16px;fill:white;">(<tspan x="273.634px " y="96px ">)</tspan></text>
                        <text x="284.436px" y="96px" style="font-family:'RobotoMono-Regular', 'Roboto Mono', monospace;font-size:16px;fill:rgb(178,178,178);">=<tspan x="295.237px " y="96px ">&gt;</tspan></text>
                        <text x="306.039px" y="96px" style="font-family:'RobotoMono-Regular', 'Roboto Mono', monospace;font-size:16px;fill:rgb(255,233,162);">s<tspan x="316.841px 327.642px 338.444px 349.245px 360.047px 370.848px 381.65px " y="96px 96px 96px 96px 96px 96px 96px ">etValue</tspan></text>
                        <text x="392.452px" y="96px" style="font-family:'RobotoMono-Regular', 'Roboto Mono', monospace;font-size:16px;fill:white;">(</text>
                        <text x="403.253px" y="96px" style="font-family:'RobotoMono-Regular', 'Roboto Mono', monospace;font-size:16px;fill:rgb(255,233,162);">v<tspan x="414.055px 424.856px 435.658px 446.459px " y="96px 96px 96px 96px ">alue</tspan></text>
                        <text x="468.062px" y="96px" style="font-family:'RobotoMono-Regular', 'Roboto Mono', monospace;font-size:16px;fill:white;">-<tspan x="478.864px 489.666px 500.467px " y="96px 96px 96px "> 1)</tspan></text>
                        <text x="511.269px" y="96px" style="font-family:'RobotoMono-Regular', 'Roboto Mono', monospace;font-size:16px;fill:rgb(178,178,178);">}</text>
                        <text x="522.07px" y="96px" style="font-family:'RobotoMono-Regular', 'Roboto Mono', monospace;font-size:16px;fill:rgb(119,178,176);">&gt;</text>
                        <text x="532.872px" y="96px" style="font-family:'RobotoMono-Regular', 'Roboto Mono', monospace;font-size:16px;fill:white;">-</text>
                        <text x="543.673px" y="96px" style="font-family:'RobotoMono-Regular', 'Roboto Mono', monospace;font-size:16px;fill:rgb(119,178,176);">&lt;<tspan x="554.475px " y="96px ">/</tspan></text>
                        <text x="565.277px" y="96px" style="font-family:'RobotoMono-Regular', 'Roboto Mono', monospace;font-size:16px;fill:rgb(171,255,252);">b<tspan x="576.078px 586.88px 597.681px 608.483px 619.284px " y="96px 96px 96px 96px 96px ">utton</tspan></text>
                        <text x="630.086px" y="96px" style="font-family:'RobotoMono-Regular', 'Roboto Mono', monospace;font-size:16px;fill:rgb(119,178,176);">&gt;</text>
                        <text x="79.206px" y="124px" style="font-family:'RobotoMono-Regular', 'Roboto Mono', monospace;font-size:16px;fill:rgb(119,178,176);"><tspan x="79.206px " y="124px ">&lt;</tspan></text>
                        <text x="90.008px" y="124px" style="font-family:'RobotoMono-Regular', 'Roboto Mono', monospace;font-size:16px;fill:rgb(171,255,252);">s<tspan x="100.809px 111.611px 122.413px 133.214px 144.016px " y="124px 124px 124px 124px 124px ">trong</tspan></text>
                        <text x="154.817px" y="124px" style="font-family:'RobotoMono-Regular', 'Roboto Mono', monospace;font-size:16px;fill:rgb(119,178,176);">&gt;</text>
                        <text x="165.619px" y="124px" style="font-family:'RobotoMono-Regular', 'Roboto Mono', monospace;font-size:16px;fill:rgb(178,178,178);">{</text>
                        <text x="176.42px" y="124px" style="font-family:'RobotoMono-Regular', 'Roboto Mono', monospace;font-size:16px;fill:rgb(255,233,162);">v<tspan x="187.222px 198.023px 208.825px 219.627px " y="124px 124px 124px 124px ">alue</tspan></text>
                        <text x="230.428px" y="124px" style="font-family:'RobotoMono-Regular', 'Roboto Mono', monospace;font-size:16px;fill:rgb(178,178,178);">}</text>
                        <text x="241.23px" y="124px" style="font-family:'RobotoMono-Regular', 'Roboto Mono', monospace;font-size:16px;fill:rgb(119,178,176);">&lt;<tspan x="252.031px " y="124px ">/</tspan></text>
                        <text x="262.833px" y="124px" style="font-family:'RobotoMono-Regular', 'Roboto Mono', monospace;font-size:16px;fill:rgb(171,255,252);">s<tspan x="273.634px 284.436px 295.237px 306.039px 316.841px " y="124px 124px 124px 124px 124px ">trong</tspan></text>
                        <text x="327.642px" y="124px" style="font-family:'RobotoMono-Regular', 'Roboto Mono', monospace;font-size:16px;fill:rgb(119,178,176);">&gt;</text>
                        <text x="79.206px" y="152px" style="font-family:'RobotoMono-Regular', 'Roboto Mono', monospace;font-size:16px;fill:rgb(119,178,176);"><tspan x="79.206px " y="152px ">&lt;</tspan></text>
                        <text x="90.008px" y="152px" style="font-family:'RobotoMono-Regular', 'Roboto Mono', monospace;font-size:16px;fill:rgb(171,255,252);">b<tspan x="100.809px 111.611px 122.413px 133.214px 144.016px " y="152px 152px 152px 152px 152px ">utton</tspan></text>
                        <text x="165.619px" y="152px" style="font-family:'RobotoMono-Regular', 'Roboto Mono', monospace;font-size:16px;fill:rgb(43,239,179);">o<tspan x="176.42px 187.222px 198.023px 208.825px 219.627px 230.428px " y="152px 152px 152px 152px 152px 152px ">nclick</tspan></text>
                        <text x="241.23px" y="152px" style="font-family:'RobotoMono-Regular', 'Roboto Mono', monospace;font-size:16px;fill:rgb(171,255,252);">=</text>
                        <text x="252.031px" y="152px" style="font-family:'RobotoMono-Regular', 'Roboto Mono', monospace;font-size:16px;fill:rgb(178,178,178);">{</text>
                        <text x="262.833px" y="152px" style="font-family:'RobotoMono-Regular', 'Roboto Mono', monospace;font-size:16px;fill:white;">(<tspan x="273.634px " y="152px ">)</tspan></text>
                        <text x="284.436px" y="152px" style="font-family:'RobotoMono-Regular', 'Roboto Mono', monospace;font-size:16px;fill:rgb(178,178,178);">=<tspan x="295.237px " y="152px ">&gt;</tspan></text>
                        <text x="306.039px" y="152px" style="font-family:'RobotoMono-Regular', 'Roboto Mono', monospace;font-size:16px;fill:rgb(255,233,162);">s<tspan x="316.841px 327.642px 338.444px 349.245px 360.047px 370.848px 381.65px " y="152px 152px 152px 152px 152px 152px 152px ">etValue</tspan></text>
                        <text x="392.452px" y="152px" style="font-family:'RobotoMono-Regular', 'Roboto Mono', monospace;font-size:16px;fill:white;">(</text>
                        <text x="403.253px" y="152px" style="font-family:'RobotoMono-Regular', 'Roboto Mono', monospace;font-size:16px;fill:rgb(255,233,162);">v<tspan x="414.055px 424.856px 435.658px 446.459px " y="152px 152px 152px 152px ">alue</tspan></text>
                        <text x="468.062px" y="152px" style="font-family:'RobotoMono-Regular', 'Roboto Mono', monospace;font-size:16px;fill:white;">+<tspan x="478.864px 489.666px 500.467px " y="152px 152px 152px "> 1)</tspan></text>
                        <text x="511.269px" y="152px" style="font-family:'RobotoMono-Regular', 'Roboto Mono', monospace;font-size:16px;fill:rgb(178,178,178);">}</text>
                        <text x="522.07px" y="152px" style="font-family:'RobotoMono-Regular', 'Roboto Mono', monospace;font-size:16px;fill:rgb(119,178,176);">&gt;</text>
                        <text x="532.872px" y="152px" style="font-family:'RobotoMono-Regular', 'Roboto Mono', monospace;font-size:16px;fill:white;">+</text>
                        <text x="543.673px" y="152px" style="font-family:'RobotoMono-Regular', 'Roboto Mono', monospace;font-size:16px;fill:rgb(119,178,176);">&lt;<tspan x="554.475px " y="152px ">/</tspan></text>
                        <text x="565.277px" y="152px" style="font-family:'RobotoMono-Regular', 'Roboto Mono', monospace;font-size:16px;fill:rgb(171,255,252);">b<tspan x="576.078px 586.88px 597.681px 608.483px 619.284px " y="152px 152px 152px 152px 152px ">utton</tspan></text>
                        <text x="630.086px" y="152px" style="font-family:'RobotoMono-Regular', 'Roboto Mono', monospace;font-size:16px;fill:rgb(119,178,176);">&gt;</text>
                        <text x="36px" y="180px" style="font-family:'RobotoMono-Regular', 'Roboto Mono', monospace;font-size:16px;fill:rgb(119,178,176);"><tspan x="36px 46.802px " y="180px 180px ">&lt;/</tspan></text>
                        <text x="57.603px" y="180px" style="font-family:'RobotoMono-Regular', 'Roboto Mono', monospace;font-size:16px;fill:rgb(171,255,252);">h<tspan x="68.405px 79.206px 90.008px " y="180px 180px 180px ">ost</tspan></text>
                        <text x="100.809px" y="180px" style="font-family:'RobotoMono-Regular', 'Roboto Mono', monospace;font-size:16px;fill:rgb(119,178,176);">&gt;</text>
                        <text x="0px" y="208px" style="font-family:'RobotoMono-Regular', 'Roboto Mono', monospace;font-size:16px;fill:rgb(178,178,178);">}</text>
                    </g>
                </g>
            </g>
        </g>
    </g>
</svg>
