<svg xmlns="http://www.w3.org/2000/svg" width="22.311" height="15.005" viewBox="0 0 22.311 15.005"><path d="M-4385.25-947h0a6.923,6.923,0,0,1-5.751-2.682,22.571,22.571,0,0,1,2.774-10.432,9.546,9.546,0,0,1,5.285-1.886h.058l.208.2a11.045,11.045,0,0,0-4.934,2.284.725.725,0,0,0,.12-.054,17.456,17.456,0,0,1,7.427-1.664,17.715,17.715,0,0,1,7.764,1.816,12.67,12.67,0,0,0-4.726-2.284l.281-.272a9.439,9.439,0,0,1,5.264,1.872,22.673,22.673,0,0,1,2.79,10.43c-.037,0-.1.066-.206.172a7.8,7.8,0,0,1-5.739,2.394.05.05,0,0,1-.015-.015c-.225-.253-.792-.9-1.208-1.472a6.265,6.265,0,0,0,3.388-2.082,13,13,0,0,1-6.957,2.112,19.147,19.147,0,0,1-7.086-1.616.107.107,0,0,1-.084-.039l-.006-.013-.006-.006a.118.118,0,0,0-.085-.039h-.09c-.123-.078-.31-.191-.5-.291l-.01-.005a6.065,6.065,0,0,0,3.288,2.086c-.511.575-1.031,1.227-1.23,1.48l-.006.008Zm8.839-8.442v.006a1.974,1.974,0,0,0-1.947,1.986,1.971,1.971,0,0,0,1.953,1.983,1.973,1.973,0,0,0,1.95-1.991,1.968,1.968,0,0,0-.566-1.4,1.969,1.969,0,0,0-1.389-.587Zm-6.981,0h-.006a1.972,1.972,0,0,0-1.951,1.987,1.971,1.971,0,0,0,1.953,1.983,1.974,1.974,0,0,0,1.952-1.991,1.969,1.969,0,0,0-1.946-1.98Z" transform="translate(4391.001 962)" fill="#fff"/></svg>