<svg xmlns="http://www.w3.org/2000/svg" width="40" height="40" viewBox="0 0 40 40"><g transform="translate(-0.056 0.081)"><path d="M-7447.952-1116.2a8.434,8.434,0,0,1-4.3-1.312,16.876,16.876,0,0,1-3.513-2.887,25.993,25.993,0,0,1-3.235-4.2,26.039,26.039,0,0,1,3.236-4.2,16.864,16.864,0,0,1,3.513-2.887,8.423,8.423,0,0,1,4.3-1.312,8.436,8.436,0,0,1,4.3,1.312,16.868,16.868,0,0,1,3.511,2.887,26.006,26.006,0,0,1,3.236,4.2,26.013,26.013,0,0,1-3.236,4.2,16.864,16.864,0,0,1-3.511,2.887A8.43,8.43,0,0,1-7447.952-1116.2Zm0-10.818a2.424,2.424,0,0,0-2.421,2.421,2.424,2.424,0,0,0,2.421,2.421,2.424,2.424,0,0,0,2.421-2.421,2.424,2.424,0,0,0-2.421-2.422Z" transform="translate(7468.057 1144.916)" fill="#fff" opacity="0.4"/><path d="M-7453.421-1121.842a5.542,5.542,0,0,1-2.171-.438,5.555,5.555,0,0,1-1.773-1.2,5.561,5.561,0,0,1-1.2-1.773,5.549,5.549,0,0,1-.438-2.172,5.548,5.548,0,0,1,.438-2.172,5.561,5.561,0,0,1,1.2-1.773,5.544,5.544,0,0,1,1.773-1.2,5.54,5.54,0,0,1,2.171-.439,5.546,5.546,0,0,1,2.172.438,5.551,5.551,0,0,1,1.772,1.2,5.546,5.546,0,0,1,1.2,1.773,5.532,5.532,0,0,1,.438,2.172,5.53,5.53,0,0,1-.438,2.172,5.563,5.563,0,0,1-1.2,1.773,5.562,5.562,0,0,1-1.772,1.2A5.549,5.549,0,0,1-7453.421-1121.842Zm0-8a2.423,2.423,0,0,0-2.421,2.421,2.423,2.423,0,0,0,2.421,2.421,2.424,2.424,0,0,0,2.421-2.421A2.425,2.425,0,0,0-7453.421-1129.842Z" transform="translate(7473.526 1147.737)" fill="#fff"/></g><path d="M8,1A7.008,7.008,0,0,0,1,8V32a7.008,7.008,0,0,0,7,7H32a7.008,7.008,0,0,0,7-7V8a7.008,7.008,0,0,0-7-7H8M8,0H32a8,8,0,0,1,8,8V32a8,8,0,0,1-8,8H8a8,8,0,0,1-8-8V8A8,8,0,0,1,8,0Z" fill="#fff" opacity="0.25"/></svg>