<svg xmlns="http://www.w3.org/2000/svg" width="40" height="40" viewBox="0 0 40 40"><g transform="translate(-193 -148)"><g transform="translate(203 160)"><path d="M4.243,0H9.9a4.243,4.243,0,0,1,4.243,4.243h0A4.243,4.243,0,0,1,9.9,8.485H4.243A4.243,4.243,0,0,1,0,4.243H0A4.243,4.243,0,0,1,4.243,0Z" transform="translate(20 6) rotate(135)" fill="#fff" opacity="0.75"/><path d="M4.242,0H9.9a4.242,4.242,0,0,1,4.242,4.242V8.485h-9.9A4.242,4.242,0,0,1,4.242,0Z" transform="translate(6 0) rotate(45)" fill="#fff"/></g><path d="M8,1A7.008,7.008,0,0,0,1,8V32a7.008,7.008,0,0,0,7,7H32a7.008,7.008,0,0,0,7-7V8a7.008,7.008,0,0,0-7-7H8M8,0H32a8,8,0,0,1,8,8V32a8,8,0,0,1-8,8H8a8,8,0,0,1-8-8V8A8,8,0,0,1,8,0Z" transform="translate(193 148)" fill="#fff" opacity="0.25"/></g></svg>