<svg xmlns="http://www.w3.org/2000/svg" width="40" height="40" viewBox="0 0 40 40"><g transform="translate(-268 -148)"><path d="M8,1A7.008,7.008,0,0,0,1,8V32a7.008,7.008,0,0,0,7,7H32a7.008,7.008,0,0,0,7-7V8a7.008,7.008,0,0,0-7-7H8M8,0H32a8,8,0,0,1,8,8V32a8,8,0,0,1-8,8H8a8,8,0,0,1-8-8V8A8,8,0,0,1,8,0Z" transform="translate(268 148)" fill="#fff" opacity="0.25"/><g transform="translate(4.485 -0.928)"><g transform="translate(-38.026 251.853) rotate(-45)"><rect width="10" height="2" rx="1" transform="translate(278.171 161)" fill="#fff"/><rect width="10" height="2" rx="1" transform="translate(280.171 161) rotate(90)" fill="#fff" opacity="0.75"/></g><g transform="translate(619.632 86.147) rotate(135)"><rect width="10" height="2" rx="1" transform="translate(288.778 171.606)" fill="#fff"/><rect width="10" height="2" rx="1" transform="translate(290.778 171.606) rotate(90)" fill="#fff" opacity="0.75"/></g></g></g></svg>