<svg xmlns="http://www.w3.org/2000/svg" width="40" height="40" viewBox="0 0 40 40"><g transform="translate(-268 -148)"><path d="M8,1A7.008,7.008,0,0,0,1,8V32a7.008,7.008,0,0,0,7,7H32a7.008,7.008,0,0,0,7-7V8a7.008,7.008,0,0,0-7-7H8M8,0H32a8,8,0,0,1,8,8V32a8,8,0,0,1-8,8H8a8,8,0,0,1-8-8V8A8,8,0,0,1,8,0Z" transform="translate(268 148)" fill="#fff" opacity="0.25"/><g transform="matrix(0.966, 0.259, -0.259, 0.966, 60.709, -66.841)"><g transform="translate(-38.026 251.853) rotate(-45)"><rect width="17" height="2" rx="1" transform="translate(278.171 161)" fill="#fff" opacity="0.6"/><rect width="13" height="2" rx="1" transform="translate(279.385 162.871) rotate(60)" fill="#fff" opacity="0.6"/></g><circle cx="3.5" cy="3.5" r="3.5" transform="matrix(0.966, -0.259, 0.259, 0.966, 269.909, 166.985)" fill="#fff"/><circle cx="3.5" cy="3.5" r="3.5" transform="matrix(0.966, -0.259, 0.259, 0.966, 278.645, 157.086)" fill="#fff"/><circle cx="3.5" cy="3.5" r="3.5" transform="matrix(0.966, -0.259, 0.259, 0.966, 281.25, 170.675)" fill="#fff"/></g></g></svg>