<svg xmlns="http://www.w3.org/2000/svg" xmlns:xlink="http://www.w3.org/1999/xlink" width="40" height="40" viewBox="0 0 40 40"><defs><linearGradient id="a" x1="0.5" x2="0.5" y2="1" gradientUnits="objectBoundingBox"><stop offset="0" stop-color="#fff" stop-opacity="0"/><stop offset="1" stop-color="#fff"/></linearGradient></defs><g transform="translate(10 10)"><path d="M-7571.431-836.774a7.769,7.769,0,0,1,.262-1.925l9.473,9.473a7.744,7.744,0,0,1-1.926.262Zm2.3,5.58-.069-.069a7.713,7.713,0,0,1-2.154-4.341l6.563,6.563a7.711,7.711,0,0,1-4.34-2.154Zm-1.766-8.328a7.709,7.709,0,0,1,.748-1.438l10.716,10.715a7.725,7.725,0,0,1-1.438.748Zm1.213-2.068.05-.062.981-.981.062-.051,10.88,10.88a7.7,7.7,0,0,1-1.093,1.093Zm1.722-1.557a7.722,7.722,0,0,1,1.438-.749l10.025,10.025a7.682,7.682,0,0,1-.749,1.438Zm2.261-1.019a7.747,7.747,0,0,1,1.926-.261l7.81,7.809a7.77,7.77,0,0,1-.262,1.925Zm3.1-.185a7.735,7.735,0,0,1,6.562,6.563Z" transform="translate(7576.041 848.964)" opacity="0.75" fill="url(#a)"/><circle cx="7.605" cy="7.605" r="7.605" transform="translate(0 0)" fill="#fff"/></g><path d="M8,1A7.008,7.008,0,0,0,1,8V32a7.008,7.008,0,0,0,7,7H32a7.008,7.008,0,0,0,7-7V8a7.008,7.008,0,0,0-7-7H8M8,0H32a8,8,0,0,1,8,8V32a8,8,0,0,1-8,8H8a8,8,0,0,1-8-8V8A8,8,0,0,1,8,0Z" fill="#fff" opacity="0.25"/></svg>