<svg xmlns="http://www.w3.org/2000/svg" width="16.053" height="13.041" viewBox="0 0 16.053 13.041"><path d="M16.053,49.544a6.862,6.862,0,0,1-1.9.52A3.273,3.273,0,0,0,15.6,48.245a6.577,6.577,0,0,1-2.087.8A3.291,3.291,0,0,0,7.82,51.3a3.389,3.389,0,0,0,.076.75A9.315,9.315,0,0,1,1.118,48.6,3.292,3.292,0,0,0,2.129,53a3.25,3.25,0,0,1-1.487-.4v.036a3.306,3.306,0,0,0,2.637,3.234,3.285,3.285,0,0,1-.863.108,2.91,2.91,0,0,1-.623-.056A3.322,3.322,0,0,0,4.868,58.21a6.613,6.613,0,0,1-4.081,1.4A6.163,6.163,0,0,1,0,59.567a9.265,9.265,0,0,0,5.049,1.477,9.3,9.3,0,0,0,9.367-9.365c0-.145,0-.286-.012-.425a6.565,6.565,0,0,0,1.649-1.71Z" transform="translate(0 -48.004)" fill="#fff"/></svg>