<svg xmlns="http://www.w3.org/2000/svg" width="160" height="34.893" viewBox="0 0 160 34.893"><g transform="translate(-15.196 107.918)"><g transform="translate(15.196 -107.918)"><path d="M79.2-43.173a6.91,6.91,0,0,1-.705.615l-6.317,0c.4-.265.8-.553,1.181-.856h6.068C79.36-43.329,79.281-43.251,79.2-43.173Zm.84-1.019H74.273c.153-.142.308-.29.458-.44s.271-.275.4-.416h5.4a6.869,6.869,0,0,1-.491.856Zm-2.859,2.418a6.8,6.8,0,0,1-2.825.608,6.8,6.8,0,0,1-2.826-.608h5.651Zm3.668-4.056h-5.04c.227-.276.447-.563.654-.856l4.614,0a6.824,6.824,0,0,1-.227.856Zm.336-1.636h-4.2c.175-.278.343-.566.5-.856H81.2c.005.1.006.2.007.3,0,.184-.008.37-.022.552ZM81.127-49.1l-3.238,0c.132-.279.259-.567.376-.856h2.669a6.839,6.839,0,0,1,.193.857Zm-.476-1.637H78.557c.1-.281.187-.568.269-.856H80.2a6.86,6.86,0,0,1,.446.855Zm-1-1.639h-.622c.041-.18.081-.364.116-.548a6.918,6.918,0,0,1,.5.548Z" transform="translate(-48.142 75.758)" fill="#fff"/><path d="M41.2-71.247a15.352,15.352,0,0,1-2.393,1.952,15.25,15.25,0,0,1-16.759,0A15.388,15.388,0,0,1,17.7-73.641a15.253,15.253,0,0,1,0-16.757,15.367,15.367,0,0,1,4.844-4.661,15.185,15.185,0,0,1,6.68-2.145,15.338,15.338,0,0,1,3.492.126,9.639,9.639,0,0,0,1.934,10.832,9.639,9.639,0,0,0,10.832,1.934A15.218,15.218,0,0,1,41.2-71.247Z" transform="translate(-15.196 101.68)" fill="#fff"/><path d="M69.243-91.312l5-5A8.606,8.606,0,0,1,69.243-91.312Zm-1.852.468a8.633,8.633,0,0,1-1.586.07l8.979-8.979a8.633,8.633,0,0,1-.07,1.586Zm-2.819-.078a8.572,8.572,0,0,1-1.192-.324l10.933-10.933a8.565,8.565,0,0,1,.324,1.192Zm-2.167-.731a8.5,8.5,0,0,1-.96-.555l11.9-11.9a8.519,8.519,0,0,1,.555.96Zm-1.744-1.154q-.261-.222-.508-.469-.136-.136-.264-.275l12.118-12.118q.139.128.275.263.247.247.469.508Zm-1.393-1.505a8.527,8.527,0,0,1-.586-.929l11.636-11.635a8.529,8.529,0,0,1,.929.586Zm-1.027-1.871a8.553,8.553,0,0,1-.364-1.151l10.346-10.346a8.542,8.542,0,0,1,1.152.363Zm-.561-2.337a8.626,8.626,0,0,1-.012-1.5l7.87-7.87a8.651,8.651,0,0,1,1.5.012Zm.293-3.191a8.6,8.6,0,0,1,5.874-5.874Z" transform="translate(-40.017 107.918)" fill="#fff"/></g><g transform="translate(58.658 -101.293)"><path d="M172.672-78.951v7.6a1.457,1.457,0,0,0,.371,1.114,1.824,1.824,0,0,0,1.251.344h1.788v3.245h-2.42q-4.869,0-4.868-4.731v-7.575h-1.815v-3.163h1.815V-85.65h3.878v3.536h3.411v3.163Z" transform="translate(-147.419 88.27)" fill="#fff"/><path d="M307.275-61.665h3.851V-77.133h-3.851Z" transform="translate(-229.462 83.29)" fill="#fff"/><path d="M201.3-77.171a7.746,7.746,0,0,1,7.742,7.742,7.746,7.746,0,0,1-7.742,7.742,7.746,7.746,0,0,1-7.742-7.742A7.746,7.746,0,0,1,201.3-77.171Zm0,3.539a4.2,4.2,0,0,1,4.2,4.2,4.2,4.2,0,0,1-4.2,4.2,4.205,4.205,0,0,1-4.2-4.2A4.205,4.205,0,0,1,201.3-73.632Z" transform="translate(-162.961 83.312)" fill="#fff" fill-rule="evenodd"/><path d="M370.99-77.171a7.746,7.746,0,0,1,7.742,7.742,7.746,7.746,0,0,1-7.742,7.742,7.746,7.746,0,0,1-7.742-7.742A7.746,7.746,0,0,1,370.99-77.171Zm0,3.539a4.205,4.205,0,0,1,4.2,4.2,4.205,4.205,0,0,1-4.2,4.2,4.2,4.2,0,0,1-4.2-4.2A4.2,4.2,0,0,1,370.99-73.632Z" transform="translate(-262.194 83.312)" fill="#fff" fill-rule="evenodd"/><path d="M337.8-66.1a7.747,7.747,0,0,1-6.991,4.412,7.746,7.746,0,0,1-7.742-7.742,7.746,7.746,0,0,1,7.742-7.742,7.746,7.746,0,0,1,6.9,4.237l-3.448,1.115a4.2,4.2,0,0,0-3.456-1.812,4.2,4.2,0,0,0-4.2,4.2,4.2,4.2,0,0,0,4.2,4.2,4.2,4.2,0,0,0,3.543-1.942Z" transform="translate(-238.695 83.312)" fill="#fff" fill-rule="evenodd"/><path d="M308.642-91.961A2.362,2.362,0,0,1,311-89.6a2.362,2.362,0,0,1-2.36,2.361,2.362,2.362,0,0,1-2.36-2.361A2.362,2.362,0,0,1,308.642-91.961Z" transform="translate(-228.881 91.961)" fill="#fff" fill-rule="evenodd"/><path d="M241.839-77.133h-3.593V-62.91a1.246,1.246,0,0,0,1.246,1.246h1.1a1.246,1.246,0,0,0,1.246-1.246Z" transform="translate(-189.095 83.29)" fill="#fff" fill-rule="evenodd"/><path d="M250.733-74.811q-.154-.175-.32-.342a7.126,7.126,0,0,0-5.039-2.087h0a7.126,7.126,0,0,0-5.039,2.087,7.127,7.127,0,0,0-2.088,5.039v8.4h3.593v-8.6A3.563,3.563,0,0,1,245.4-73.88h0a3.563,3.563,0,0,1,3.563,3.563v8.6h3.592v-8.6a3.563,3.563,0,0,1,3.563-3.563h0a3.563,3.563,0,0,1,3.563,3.563v8.6h3.535v-8.4a7.126,7.126,0,0,0-2.087-5.039,7.127,7.127,0,0,0-5.039-2.087h0a7.127,7.127,0,0,0-5.039,2.087Q250.887-74.987,250.733-74.811Z" transform="translate(-189.095 83.353)" fill="#fff" fill-rule="evenodd"/><path d="M132.676-70.261h-7.559l-1.251,3.616h-4l6.824-19h4.432l6.824,19h-4.024Zm-1.033-3.045L128.9-81.245l-2.746,7.939Z" transform="translate(-119.87 88.27)" fill="#fff"/></g></g></svg>