<svg xmlns="http://www.w3.org/2000/svg" width="160" height="34.893"><g data-name="Group 51" fill="#fff"><path data-name="Path 213" d="M31.058 32.585a6.91 6.91 0 0 1-.705.615h-6.317c.4-.265.8-.553 1.181-.856h6.068a2.44 2.44 0 0 1-.227.241Zm.84-1.019h-5.767a17.135 17.135 0 0 0 .858-.856h5.4a6.869 6.869 0 0 1-.491.856Zm-2.859 2.418a6.8 6.8 0 0 1-2.825.608 6.8 6.8 0 0 1-2.826-.608h5.651Zm3.668-4.056h-5.04c.227-.276.447-.563.654-.856h4.614a6.824 6.824 0 0 1-.227.856Zm.336-1.636h-4.2c.175-.278.343-.566.5-.856h3.715a7.234 7.234 0 0 1-.015.852Zm-.058-1.634h-3.238c.132-.279.259-.567.376-.856h2.669a6.839 6.839 0 0 1 .193.857Zm-.476-1.637h-2.094c.1-.281.187-.568.269-.856h1.374a6.86 6.86 0 0 1 .446.855Zm-1-1.639h-.622c.041-.18.081-.364.116-.548a6.918 6.918 0 0 1 .5.548Z"/><path data-name="Path 214" d="M26.004 30.433a15.352 15.352 0 0 1-2.393 1.952 15.25 15.25 0 0 1-16.759 0 15.388 15.388 0 0 1-4.348-4.346 15.253 15.253 0 0 1 0-16.757 15.367 15.367 0 0 1 4.844-4.661 15.185 15.185 0 0 1 6.68-2.145 15.338 15.338 0 0 1 3.492.126 9.639 9.639 0 0 0 1.934 10.832 9.639 9.639 0 0 0 10.832 1.934 15.218 15.218 0 0 1-4.282 13.065Z"/><path data-name="Path 215" d="m29.226 16.606 5-5a8.606 8.606 0 0 1-5 5Zm-1.852.468a8.633 8.633 0 0 1-1.586.07l8.979-8.979a8.633 8.633 0 0 1-.07 1.586Zm-2.819-.078a8.572 8.572 0 0 1-1.192-.324L34.296 5.739a8.565 8.565 0 0 1 .324 1.192Zm-2.167-.731a8.5 8.5 0 0 1-.96-.555l11.9-11.9a8.519 8.519 0 0 1 .555.96Zm-1.744-1.154q-.261-.222-.508-.469-.136-.136-.264-.275L31.99 2.249q.139.128.275.263.247.247.469.508Zm-1.393-1.505a8.527 8.527 0 0 1-.586-.929L30.301 1.042a8.529 8.529 0 0 1 .929.586Zm-1.027-1.871a8.553 8.553 0 0 1-.364-1.151L28.206.238a8.542 8.542 0 0 1 1.152.363Zm-.561-2.337a8.626 8.626 0 0 1-.012-1.5l7.87-7.87a8.651 8.651 0 0 1 1.5.012Zm.293-3.191A8.6 8.6 0 0 1 23.83.333Z"/><g><path data-name="Path 216" d="M68.715 15.944v7.6a1.457 1.457 0 0 0 .371 1.114 1.824 1.824 0 0 0 1.251.344h1.788v3.245h-2.42q-4.869 0-4.868-4.731v-7.575h-1.815v-3.163h1.815V9.245h3.878v3.536h3.411v3.163Z"/><path data-name="Path 217" d="M121.275 28.25h3.851V12.782h-3.851Z"/><path data-name="Path 218" d="M81.801 12.766a7.746 7.746 0 0 1 7.742 7.742 7.746 7.746 0 0 1-7.742 7.742 7.746 7.746 0 0 1-7.742-7.742 7.746 7.746 0 0 1 7.742-7.742Zm0 3.539a4.2 4.2 0 0 1 4.2 4.2 4.2 4.2 0 0 1-4.2 4.2 4.205 4.205 0 0 1-4.2-4.2 4.205 4.205 0 0 1 4.2-4.2Z" fill-rule="evenodd"/><path data-name="Path 219" d="M152.258 12.766A7.746 7.746 0 0 1 160 20.508a7.746 7.746 0 0 1-7.742 7.742 7.746 7.746 0 0 1-7.742-7.742 7.746 7.746 0 0 1 7.742-7.742Zm0 3.539a4.205 4.205 0 0 1 4.2 4.2 4.205 4.205 0 0 1-4.2 4.2 4.2 4.2 0 0 1-4.2-4.2 4.2 4.2 0 0 1 4.2-4.2Z" fill-rule="evenodd"/><path data-name="Path 220" d="M142.567 23.837a7.747 7.747 0 0 1-6.991 4.412 7.746 7.746 0 0 1-7.742-7.742 7.746 7.746 0 0 1 7.742-7.742 7.746 7.746 0 0 1 6.9 4.237l-3.448 1.115a4.2 4.2 0 0 0-3.456-1.812 4.2 4.2 0 0 0-4.2 4.2 4.2 4.2 0 0 0 4.2 4.2 4.2 4.2 0 0 0 3.543-1.942Z" fill-rule="evenodd"/><path data-name="Path 221" d="M123.223 6.625a2.362 2.362 0 0 1 2.358 2.361 2.362 2.362 0 0 1-2.36 2.361 2.362 2.362 0 0 1-2.36-2.361 2.362 2.362 0 0 1 2.362-2.361Z" fill-rule="evenodd"/><path data-name="Path 222" d="M96.206 12.782h-3.593v14.223a1.246 1.246 0 0 0 1.246 1.246h1.1a1.246 1.246 0 0 0 1.246-1.246Z" fill-rule="evenodd"/><path data-name="Path 223" d="M105.1 15.167q-.154-.175-.32-.342a7.126 7.126 0 0 0-5.039-2.087 7.126 7.126 0 0 0-5.039 2.087 7.127 7.127 0 0 0-2.088 5.039v8.4h3.593v-8.6a3.563 3.563 0 0 1 3.56-3.566 3.563 3.563 0 0 1 3.563 3.563v8.6h3.592v-8.6a3.563 3.563 0 0 1 3.563-3.563 3.563 3.563 0 0 1 3.563 3.563v8.6h3.535v-8.4a7.126 7.126 0 0 0-2.087-5.039 7.127 7.127 0 0 0-5.039-2.087 7.127 7.127 0 0 0-5.039 2.087q-.164.169-.318.345Z" fill-rule="evenodd"/><path data-name="Path 224" d="M56.268 24.634h-7.559l-1.251 3.616h-4l6.824-19h4.432l6.824 19h-4.024Zm-1.033-3.045-2.743-7.939-2.746 7.939Z"/></g></g></svg>