<svg xmlns="http://www.w3.org/2000/svg" xmlns:xlink="http://www.w3.org/1999/xlink" width="40" height="40" viewBox="0 0 40 40"><defs><linearGradient id="a" x1="0.945" y1="0.038" x2="0.087" y2="0.939" gradientUnits="objectBoundingBox"><stop offset="0" stop-color="#f0f"/><stop offset="1" stop-color="tomato"/></linearGradient><linearGradient id="b" x1="0.811" y1="0.305" x2="0.022" y2="0.958" gradientUnits="objectBoundingBox"><stop offset="0" stop-color="#fff"/><stop offset="1" stop-color="gray" stop-opacity="0.502"/></linearGradient><linearGradient id="c" x1="0.811" y1="0.311" x2="0.022" y2="0.936" gradientUnits="objectBoundingBox"><stop offset="0" stop-color="#fff"/><stop offset="1" stop-color="#fff" stop-opacity="0.502"/></linearGradient></defs><g transform="translate(-224.003 -255)"><path d="M-1047-5520h-20a10.011,10.011,0,0,1-10-10v-20a10.012,10.012,0,0,1,10-10h20a10.011,10.011,0,0,1,10,10v20A10.011,10.011,0,0,1-1047-5520Zm-20-38a8.01,8.01,0,0,0-8,8v20a8.01,8.01,0,0,0,8,8h20a8.009,8.009,0,0,0,8-8v-20a8.009,8.009,0,0,0-8-8Z" transform="translate(1301.003 5815)" fill="url(#a)"/><g transform="matrix(0.966, 0.259, -0.259, 0.966, 79.489, -53.782)"><path d="M-2017-5547a.522.522,0,0,1,0-.054,11.923,11.923,0,0,1,3.514-8.431,11.923,11.923,0,0,1,8.487-3.516,11.917,11.917,0,0,1,8.281,3.316,2.489,2.489,0,0,1,1.216-.315,2.5,2.5,0,0,1,2.5,2.5,2.5,2.5,0,0,1-2.5,2.5,2.5,2.5,0,0,1-2.5-2.5,2.489,2.489,0,0,1,.519-1.526,10.932,10.932,0,0,0-7.516-2.975,11.082,11.082,0,0,0-10.99,10.52,3.821,3.821,0,0,1-.014.481.5.5,0,0,1-.5.5A.5.5,0,0,1-2017-5547Z" transform="translate(2249 5822)" fill="url(#b)"/><path d="M-2017-5547a.522.522,0,0,1,0-.054,11.923,11.923,0,0,1,3.514-8.431,11.923,11.923,0,0,1,8.487-3.516,11.917,11.917,0,0,1,8.281,3.316,2.489,2.489,0,0,1,1.216-.315,2.5,2.5,0,0,1,2.5,2.5,2.5,2.5,0,0,1-2.5,2.5,2.5,2.5,0,0,1-2.5-2.5,2.489,2.489,0,0,1,.519-1.526,10.932,10.932,0,0,0-7.516-2.975,11.082,11.082,0,0,0-10.99,10.52,3.821,3.821,0,0,1-.014.481.5.5,0,0,1-.5.5A.5.5,0,0,1-2017-5547Z" transform="translate(-1760.994 -5272.001) rotate(180)" fill="url(#c)"/></g><circle cx="4" cy="4" r="4" transform="translate(240.004 271)" fill="#fff"/></g></svg>