<svg xmlns="http://www.w3.org/2000/svg" xmlns:xlink="http://www.w3.org/1999/xlink" width="40" height="40" viewBox="0 0 40 40"><defs><linearGradient id="a" x1="0.945" y1="0.038" x2="0.087" y2="0.939" gradientUnits="objectBoundingBox"><stop offset="0" stop-color="#f0f"/><stop offset="1" stop-color="tomato"/></linearGradient></defs><g transform="translate(-224 -255)"><path d="M-1047-5520h-20a10.011,10.011,0,0,1-10-10v-20a10.012,10.012,0,0,1,10-10h20a10.011,10.011,0,0,1,10,10v20A10.011,10.011,0,0,1-1047-5520Zm-20-38a8.01,8.01,0,0,0-8,8v20a8.01,8.01,0,0,0,8,8h20a8.009,8.009,0,0,0,8-8v-20a8.009,8.009,0,0,0-8-8Z" transform="translate(1301 5815)" fill="url(#a)"/><g transform="translate(224 255)"><g transform="translate(2.488 3.572)"><g transform="translate(6.22 3.843)"><path d="M4.95,7.113A5.76,5.76,0,0,1,2.9,6.76,4.835,4.835,0,0,1,.034,3.8a.861.861,0,1,1,1.654-.482A3.091,3.091,0,0,0,3.54,5.158c1.282.469,3.718.447,8.039-2.326C15.454.346,18.758-.51,21.4.29a5.757,5.757,0,0,1,3.524,2.921.862.862,0,0,1-1.579.69,4.023,4.023,0,0,0-2.481-1.974c-2.1-.618-4.994.2-8.357,2.354C9.574,6.166,7.041,7.113,4.95,7.113Z" transform="translate(0 21.649) rotate(-60)" fill="#fff"/><rect width="12.271" height="1.753" rx="0.877" transform="translate(3.091 10.295)" fill="#fff"/></g><g transform="translate(18.272 18.357)"><path d="M8376.12,2288.02a3.42,3.42,0,0,1-1.2-.619,3.959,3.959,0,0,1-.911-1,4.675,4.675,0,0,1-.642-1.645,6.832,6.832,0,0,1-.127-1.338,6.173,6.173,0,0,1,.431-2.356,4.642,4.642,0,0,1,.966-1.48,3.955,3.955,0,0,1,1.449-.967l.266.819h0a3.135,3.135,0,0,0-1.132.782,4.474,4.474,0,0,0-1.122,3.2h0a5.958,5.958,0,0,0,.112,1.17,3.424,3.424,0,0,0,1.2,2.1,2.689,2.689,0,0,0,.906.487h0Z" transform="translate(-8373.237 -2278.6)" fill="#fff"/><path d="M8373.77,2287.92l-.2-.837h0a2.7,2.7,0,0,0,.905-.487,3.425,3.425,0,0,0,1.2-2.1,6.036,6.036,0,0,0,.112-1.17h0a4.448,4.448,0,0,0-1.152-3.235,3.141,3.141,0,0,0-1.1-.75.431.431,0,1,1,.265-.819,3.932,3.932,0,0,1,1.451.968,4.6,4.6,0,0,1,.965,1.48,6.157,6.157,0,0,1,.432,2.356,6.99,6.99,0,0,1-.129,1.338,4.692,4.692,0,0,1-.641,1.644,3.973,3.973,0,0,1-.91,1A3.443,3.443,0,0,1,8373.77,2287.92Z" transform="translate(-8366.348 -2278.499)" fill="#fff"/></g><g transform="translate(21.029 20.598)"><path d="M8292.39,2318.27a.429.429,0,0,1-.3-.126l-3.933-3.933a.431.431,0,0,1,.609-.609l3.933,3.934a.431.431,0,0,1-.3.735Z" transform="translate(-8288.03 -2313.48)" fill="#fff"/><path d="M8288.46,2318.27a.431.431,0,0,1-.3-.735l3.934-3.934a.431.431,0,0,1,.609.609l-3.934,3.933A.431.431,0,0,1,8288.46,2318.27Z" transform="translate(-8288.03 -2313.48)" fill="#fff"/></g></g></g></g></svg>