<svg xmlns="http://www.w3.org/2000/svg" xmlns:xlink="http://www.w3.org/1999/xlink" width="40" height="40" viewBox="0 0 40 40"><defs><linearGradient id="a" x1="0.945" y1="0.038" x2="0.087" y2="0.939" gradientUnits="objectBoundingBox"><stop offset="0" stop-color="#f0f"/><stop offset="1" stop-color="tomato"/></linearGradient></defs><g transform="translate(-224.003 -255)"><path d="M-1047-5520h-20a10.011,10.011,0,0,1-10-10v-20a10.012,10.012,0,0,1,10-10h20a10.011,10.011,0,0,1,10,10v20A10.011,10.011,0,0,1-1047-5520Zm-20-38a8.01,8.01,0,0,0-8,8v20a8.01,8.01,0,0,0,8,8h20a8.009,8.009,0,0,0,8-8v-20a8.009,8.009,0,0,0-8-8Z" transform="translate(1301.003 5815)" fill="url(#a)"/><path d="M27.175,16.921l-1.562-.169a.405.405,0,0,1-.342-.29,7.189,7.189,0,0,0-.5-1.191.406.406,0,0,1,.043-.443L25.8,13.6a.411.411,0,0,0-.028-.546l-1.733-1.733a.4.4,0,0,0-.538-.03l-1.23.987a.4.4,0,0,1-.443.045,7.024,7.024,0,0,0-1.187-.5.408.408,0,0,1-.282-.345l-.169-1.564a.408.408,0,0,0-.4-.365H17.32a.41.41,0,0,0-.407.365l-.169,1.564a.405.405,0,0,1-.289.355,6.858,6.858,0,0,0-1.187.5.4.4,0,0,1-.443-.045L13.6,11.305a.407.407,0,0,0-.546.03l-1.731,1.733a.413.413,0,0,0-.03.546l.986,1.224a.4.4,0,0,1,.045.443,6.98,6.98,0,0,0-.5,1.191.405.405,0,0,1-.345.28l-1.562.169a.41.41,0,0,0-.365.408v2.465a.41.41,0,0,0,.365.405l1.562.169a.405.405,0,0,1,.345.28,6.98,6.98,0,0,0,.5,1.191.4.4,0,0,1-.045.443l-.986,1.231a.408.408,0,0,0,.03.544L13.064,25.8a.407.407,0,0,0,.546.03l1.225-.987a.407.407,0,0,1,.443-.045,6.858,6.858,0,0,0,1.177.478.405.405,0,0,1,.279.345l.169,1.564a.41.41,0,0,0,.407.365h2.463a.408.408,0,0,0,.4-.365l.169-1.564a.408.408,0,0,1,.292-.345,7.024,7.024,0,0,0,1.187-.5.407.407,0,0,1,.443.045l1.23,1.007a.4.4,0,0,0,.543-.03l1.743-1.743a.408.408,0,0,0,.023-.539l-.986-1.226a.406.406,0,0,1-.043-.443,7.189,7.189,0,0,0,.5-1.191.405.405,0,0,1,.342-.28l1.562-.169a.408.408,0,0,0,.365-.405v-2.47a.41.41,0,0,0-.375-.408ZM18.55,22.254a3.7,3.7,0,1,1,3.69-3.694A3.7,3.7,0,0,1,18.55,22.254Z" transform="translate(225.453 256.449)" fill="#fff"/></g></svg>