<svg xmlns="http://www.w3.org/2000/svg" xmlns:xlink="http://www.w3.org/1999/xlink" width="40" height="40" viewBox="0 0 40 40">
  <defs>
    <linearGradient id="linear-gradient" x1="0.945" y1="0.038" x2="0.087" y2="0.939" gradientUnits="objectBoundingBox">
      <stop offset="0" stop-color="#f0f"/>
      <stop offset="1" stop-color="tomato"/>
    </linearGradient>
  </defs>
  <g id="like" transform="translate(-224 -255)">
    <path id="Path_457" data-name="Path 457" d="M-1047-5520h-20a10.011,10.011,0,0,1-10-10v-20a10.012,10.012,0,0,1,10-10h20a10.011,10.011,0,0,1,10,10v20A10.011,10.011,0,0,1-1047-5520Zm-20-38a8.01,8.01,0,0,0-8,8v20a8.01,8.01,0,0,0,8,8h20a8.009,8.009,0,0,0,8-8v-20a8.009,8.009,0,0,0-8-8Z" transform="translate(1301 5815)" fill="url(#linear-gradient)"/>
    <path id="Path_470" data-name="Path 470" d="M-1422.321-5826.293a.713.713,0,0,1,.379-.936.713.713,0,0,1,.936.379,3.574,3.574,0,0,0,3.292,2.18,3.573,3.573,0,0,0,3.29-2.18.714.714,0,0,1,.937-.379.716.716,0,0,1,.379.936,5,5,0,0,1-4.606,3.051A5,5,0,0,1-1422.321-5826.293Zm8.649-4.134a.714.714,0,0,1-.43-.914,3.859,3.859,0,0,1,3.593-2.615,3.712,3.712,0,0,1,2.571,1.042.712.712,0,0,1,.025,1.009.713.713,0,0,1-1.009.026,2.289,2.289,0,0,0-1.587-.648,2.427,2.427,0,0,0-2.248,1.671.717.717,0,0,1-.673.472A.7.7,0,0,1-1413.672-5830.427Zm-13.043-1.958a2,2,0,0,1,2-2,2,2,0,0,1,2,2,2,2,0,0,1-2,2A2,2,0,0,1-1426.715-5832.385Z" transform="translate(1661.715 6109.055)" fill="#fff"/>
  </g>
</svg>
