<svg xmlns="http://www.w3.org/2000/svg" width="155" height="57.094" viewBox="0 0 155 57.094"><g transform="translate(-815 -1919.554)"><path d="M-488.225-4551.353a19.884,19.884,0,0,1-12.05-3.65,12.987,12.987,0,0,1-5.324-9h10.217c.663,2.826,3.513,4.724,7.093,4.724a7.842,7.842,0,0,0,4.545-1.187,3.487,3.487,0,0,0,1.575-2.913,3.079,3.079,0,0,0-.062-.624h9.681c.014.214.022.423.026.624a10.771,10.771,0,0,1-1.09,4.765,11.141,11.141,0,0,1-3.116,3.813C-479.569-4552.544-483.544-4551.353-488.225-4551.353Zm-25.2-.647H-523.5v-12h10.081v12Zm-19.661,0h-10.084v-12h10.084v12Zm-27.94,0H-571.1v-12h10.08v12Zm-17.344,0H-584.7a19.087,19.087,0,0,1-5.147-.63,10.5,10.5,0,0,1-3.995-2.05,9.318,9.318,0,0,1-2.61-3.71,15.906,15.906,0,0,1-.992-5.609h10.158c.088,2.519,1.278,3.5,4.243,3.5h4.68v8.5Zm104.8-16h-15.356c-.523-.136-1.068-.273-1.549-.395-4.77-1.2-10.174-2.561-12.749-6.6h18.7c4.528,1.25,8.989,2.963,10.957,7Zm-39.86,0H-523.5v-7h10.081v7Zm-19.661,0h-10.084v-6.032c0-.328-.009-.653-.028-.968h10.112v7Zm-27.94,0H-571.1v-7h10.108c-.018.309-.028.634-.028.968V-4568Zm-26.272,0h-10.156v-7h10.156v7Zm27.187-11H-571.1v-26.279h10.083v18.359a13.626,13.626,0,0,1,5.166-4.041,17.232,17.232,0,0,1,7.219-1.5A15.373,15.373,0,0,1-538.478-4589a14.032,14.032,0,0,1,3.332,4.219,18.206,18.206,0,0,1,1.812,5.784h-10.742c-1.354-3.157-4.175-4.9-7.945-4.9-3.851,0-6.722,1.739-8.084,4.9Zm65.713,0h-10.216a12.869,12.869,0,0,1-.1-1.583,10.686,10.686,0,0,1,4.185-8.46c2.865-2.284,6.87-3.492,11.583-3.492,4.667,0,8.619,1.251,11.43,3.618a13.4,13.4,0,0,1,4.626,9.558h-9.648c-.3-3.2-2.868-5.184-6.7-5.184a7.39,7.39,0,0,0-4.248,1.046,3.253,3.253,0,0,0-1.44,2.771,2.953,2.953,0,0,0,.523,1.726Zm-19.027,0H-523.5v-12.888h10.081V-4579Zm-73.872,0h-10.156v-4.616H-602.2v-8.279h4.752v-9.864H-587.3v9.864h8.936v8.279h-8.928V-4579Zm68.624-17.633a5.889,5.889,0,0,1-4.081-1.634,5.942,5.942,0,0,1-1.832-4.272,5.938,5.938,0,0,1,1.834-4.276,5.888,5.888,0,0,1,4.079-1.631c.1,0,.19,0,.279.006s.157,0,.235,0a5.935,5.935,0,0,1,4.11,1.643,5.994,5.994,0,0,1,1.847,4.262,5.987,5.987,0,0,1-1.847,4.261,5.932,5.932,0,0,1-4.11,1.644c-.078,0-.158,0-.235,0S-518.569-4596.633-518.668-4596.633Z" transform="translate(1429 6528)" fill="#fff"/><g transform="translate(0 1)"><rect width="155" height="7" transform="translate(815 1952)" fill="#ff4141"/></g></g></svg>