<svg xmlns="http://www.w3.org/2000/svg" xmlns:xlink="http://www.w3.org/1999/xlink" width="40" height="40" viewBox="0 0 40 40"><defs><linearGradient id="a" x1="0.945" y1="0.038" x2="0.087" y2="0.939" gradientUnits="objectBoundingBox"><stop offset="0" stop-color="#f0f"/><stop offset="1" stop-color="tomato"/></linearGradient></defs><g transform="translate(-224.002 -255)"><path d="M-1047-5520h-20a10.011,10.011,0,0,1-10-10v-20a10.012,10.012,0,0,1,10-10h20a10.011,10.011,0,0,1,10,10v20A10.011,10.011,0,0,1-1047-5520Zm-20-38a8.01,8.01,0,0,0-8,8v20a8.01,8.01,0,0,0,8,8h20a8.009,8.009,0,0,0,8-8v-20a8.009,8.009,0,0,0-8-8Z" transform="translate(1301.002 5815)" fill="url(#a)"/><g transform="translate(-0.155 6.612)"><g transform="translate(0 2.619)"><g transform="translate(0 -2)"><g transform="translate(507.7 31.982) rotate(90)"><rect width="8" height="2" rx="1" transform="translate(240.272 269.215) rotate(45)" fill="tomato"/><rect width="8" height="2" rx="1" transform="translate(245.929 270.63) rotate(135)" fill="tomato"/></g><g transform="translate(-775.051 -7.231)"><rect width="11" height="2" rx="1" transform="translate(1018 282)" fill="#fff" opacity="0.5"/><rect width="8" height="2" rx="1" transform="translate(1022 279)" fill="#fff"/><rect width="3" height="2" rx="1" transform="translate(1018 279)" fill="#fff"/></g></g><g transform="translate(-9.337 -4.587)"><rect width="5" height="2" rx="1" transform="translate(241.909 262.477) rotate(45)" fill="#00ff90"/><rect width="8" height="2" rx="1" transform="translate(249.688 261.77) rotate(135)" fill="#00ff90"/></g><g transform="translate(-775.051 -7.231)"><rect width="14" height="2" rx="1" transform="translate(1018 264)" fill="#fff"/><rect width="6" height="2" rx="1" transform="translate(1018 267)" fill="#fff" opacity="0.5"/><rect width="3" height="2" rx="1" transform="translate(1025 267)" fill="#fff" opacity="0.5"/></g></g></g></g></svg>