<svg xmlns="http://www.w3.org/2000/svg" xmlns:xlink="http://www.w3.org/1999/xlink" width="40" height="40" viewBox="0 0 40 40">
  <defs>
    <linearGradient id="linear-gradient" x1="0.945" y1="0.038" x2="0.087" y2="0.939" gradientUnits="objectBoundingBox">
      <stop offset="0" stop-color="#f0f"/>
      <stop offset="1" stop-color="tomato"/>
    </linearGradient>
  </defs>
  <g id="speed" transform="translate(-224 -255)">
    <path id="Path_457" data-name="Path 457" d="M-1047-5520h-20a10.011,10.011,0,0,1-10-10v-20a10.012,10.012,0,0,1,10-10h20a10.011,10.011,0,0,1,10,10v20A10.011,10.011,0,0,1-1047-5520Zm-20-38a8.01,8.01,0,0,0-8,8v20a8.01,8.01,0,0,0,8,8h20a8.009,8.009,0,0,0,8-8v-20a8.009,8.009,0,0,0-8-8Z" transform="translate(1301 5815)" fill="url(#linear-gradient)"/>
    <g id="Group_279" data-name="Group 279" transform="matrix(0.966, -0.259, 0.259, 0.966, -62.648, 72.363)">
      <path id="Path_471" data-name="Path 471" d="M25.128,8.3l-.637.644A9.236,9.236,0,0,1,17.737,23.7q-.316.021-.628.021a9.2,9.2,0,0,1-6.858-3.045.573.573,0,0,1,.85-.768A8.092,8.092,0,1,0,23.289,9.264a.573.573,0,0,1,.031-.776l1-1a.406.406,0,0,0-.573-.573L22.709,7.954a.573.573,0,0,1-.749.053,8.067,8.067,0,0,0-3.936-1.563.573.573,0,0,1-.511-.568V4.03a.573.573,0,0,1,.573-.582h.525a.406.406,0,0,0,0-.811H15.6a.406.406,0,0,0,0,.811h.525a.573.573,0,0,1,.573.573V5.876a.573.573,0,0,1-.509.568,8.1,8.1,0,0,0-4.876,2.39.574.574,0,1,1-.82-.8,9.259,9.259,0,0,1,5.059-2.651V4.593A1.551,1.551,0,0,1,15.6,1.5H18.61a1.551,1.551,0,0,1,.048,3.093V5.37a9.22,9.22,0,0,1,3.581,1.423l.687-.687a1.551,1.551,0,1,1,2.2,2.193Z" transform="translate(227.16 261.5)" fill="#fff" opacity="0.75"/>
      <path id="Path_472" data-name="Path 472" d="M6.34,11.552a.573.573,0,0,0,.573.573H10.89a.573.573,0,0,0,0-1.146H6.915a.573.573,0,0,0-.573.571Zm6.512,2.777a.573.573,0,0,0-.573-.573H8.3a.573.573,0,1,0,0,1.146h3.975A.573.573,0,0,0,12.852,14.329ZM6.915,17.681H10.89a.573.573,0,0,0,0-1.146H6.915a.573.573,0,1,0,0,1.146Zm13.369-5.563-1.469,1.469A1.936,1.936,0,1,1,18,12.775l1.469-1.469a.574.574,0,1,1,.811.811Zm-2.392,2.369a.786.786,0,1,0-.786.786.786.786,0,0,0,.786-.786ZM17.107,21.3a6.819,6.819,0,1,0-4.812-11.64.574.574,0,0,0,.811.811,5.675,5.675,0,1,1,0,8.019.574.574,0,1,0-.811.811,6.8,6.8,0,0,0,4.812,2Z" transform="translate(227.16 261.5)" fill="#fff"/>
    </g>
  </g>
</svg>
