<svg xmlns="http://www.w3.org/2000/svg" xmlns:xlink="http://www.w3.org/1999/xlink" width="40" height="40" viewBox="0 0 40 40">
  <defs>
    <linearGradient id="linear-gradient" x1="0.945" y1="0.038" x2="0.087" y2="0.939" gradientUnits="objectBoundingBox">
      <stop offset="0" stop-color="#f0f"/>
      <stop offset="1" stop-color="tomato"/>
    </linearGradient>
  </defs>
  <g id="very-happy" transform="translate(-224 -255)">
    <path id="Path_457" data-name="Path 457" d="M-1047-5520h-20a10.011,10.011,0,0,1-10-10v-20a10.012,10.012,0,0,1,10-10h20a10.011,10.011,0,0,1,10,10v20A10.011,10.011,0,0,1-1047-5520Zm-20-38a8.01,8.01,0,0,0-8,8v20a8.01,8.01,0,0,0,8,8h20a8.009,8.009,0,0,0,8-8v-20a8.009,8.009,0,0,0-8-8Z" transform="translate(1301 5815)" fill="url(#linear-gradient)"/>
    <path id="Path_468" data-name="Path 468" d="M-1363.906-5827.331a.643.643,0,0,1,.214-.886.646.646,0,0,1,.886.214,4.1,4.1,0,0,0,3.517,1.7,4.1,4.1,0,0,0,3.517-1.7.646.646,0,0,1,.886-.214.643.643,0,0,1,.214.886,5.37,5.37,0,0,1-4.617,2.32A5.369,5.369,0,0,1-1363.906-5827.331Zm12.229-3.485a.645.645,0,0,1-.545-.731,1.72,1.72,0,0,0,.021-.275,1.45,1.45,0,0,0-1.289-1.565,1.45,1.45,0,0,0-1.289,1.565,1.72,1.72,0,0,0,.021.275.645.645,0,0,1-.545.731.644.644,0,0,1-.731-.545,3.206,3.206,0,0,1-.034-.461,2.724,2.724,0,0,1,2.577-2.854,2.724,2.724,0,0,1,2.577,2.854,3.206,3.206,0,0,1-.034.461.645.645,0,0,1-.637.552A.678.678,0,0,1-1351.677-5830.815Zm-11.6,0a.644.644,0,0,1-.543-.731,1.907,1.907,0,0,0,.019-.275,1.45,1.45,0,0,0-1.289-1.565,1.451,1.451,0,0,0-1.289,1.565,1.908,1.908,0,0,0,.021.275.645.645,0,0,1-.545.731.644.644,0,0,1-.731-.545,3.206,3.206,0,0,1-.034-.461,2.724,2.724,0,0,1,2.577-2.854,2.724,2.724,0,0,1,2.577,2.854,3.206,3.206,0,0,1-.034.461.645.645,0,0,1-.637.552A.678.678,0,0,1-1363.275-5830.815Z" transform="translate(1603.328 6109.35)" fill="#fff"/>
  </g>
</svg>
