<svg xmlns="http://www.w3.org/2000/svg" xmlns:xlink="http://www.w3.org/1999/xlink" width="40" height="40" viewBox="0 0 40 40">
  <defs>
    <linearGradient id="linear-gradient" x1="0.945" y1="0.038" x2="0.087" y2="0.939" gradientUnits="objectBoundingBox">
      <stop offset="0" stop-color="#f0f"/>
      <stop offset="1" stop-color="tomato"/>
    </linearGradient>
  </defs>
  <g id="view" transform="translate(-224 -255)">
    <path id="Path_457" data-name="Path 457" d="M-1047-5520h-20a10.011,10.011,0,0,1-10-10v-20a10.012,10.012,0,0,1,10-10h20a10.011,10.011,0,0,1,10,10v20A10.011,10.011,0,0,1-1047-5520Zm-20-38a8.01,8.01,0,0,0-8,8v20a8.01,8.01,0,0,0,8,8h20a8.009,8.009,0,0,0,8-8v-20a8.009,8.009,0,0,0-8-8Z" transform="translate(1301 5815)" fill="url(#linear-gradient)"/>
    <g id="icon-watch.1efba0dd" transform="translate(224 255)">
      <g id="Group_272" data-name="Group 272" transform="translate(-0.056 0.081)">
        <path id="Path_465" data-name="Path 465" d="M-7447.95-1116.2a8.434,8.434,0,0,1-4.3-1.312,16.869,16.869,0,0,1-3.513-2.887,26.03,26.03,0,0,1-3.235-4.2,26.051,26.051,0,0,1,3.236-4.2,16.861,16.861,0,0,1,3.513-2.887,8.424,8.424,0,0,1,4.3-1.312,8.436,8.436,0,0,1,4.3,1.312,16.884,16.884,0,0,1,3.511,2.887,25.963,25.963,0,0,1,3.237,4.2,26.005,26.005,0,0,1-3.236,4.2,16.865,16.865,0,0,1-3.511,2.887A8.433,8.433,0,0,1-7447.95-1116.2Zm0-10.818a2.424,2.424,0,0,0-2.421,2.421,2.424,2.424,0,0,0,2.421,2.421,2.424,2.424,0,0,0,2.421-2.421,2.424,2.424,0,0,0-2.421-2.422Z" transform="translate(7468.057 1144.916)" fill="#fff" opacity="0.4"/>
        <path id="Path_466" data-name="Path 466" d="M-7453.42-1121.84a5.543,5.543,0,0,1-2.171-.438,5.547,5.547,0,0,1-1.773-1.2,5.571,5.571,0,0,1-1.2-1.773,5.549,5.549,0,0,1-.438-2.172,5.55,5.55,0,0,1,.438-2.172,5.565,5.565,0,0,1,1.2-1.773,5.541,5.541,0,0,1,1.772-1.2,5.54,5.54,0,0,1,2.171-.439,5.546,5.546,0,0,1,2.171.438,5.553,5.553,0,0,1,1.771,1.2,5.544,5.544,0,0,1,1.2,1.773,5.539,5.539,0,0,1,.439,2.172,5.531,5.531,0,0,1-.438,2.172,5.574,5.574,0,0,1-1.2,1.773,5.557,5.557,0,0,1-1.771,1.2,5.549,5.549,0,0,1-2.172.439Zm0-8a2.423,2.423,0,0,0-2.421,2.421,2.423,2.423,0,0,0,2.422,2.421,2.424,2.424,0,0,0,2.42-2.421,2.425,2.425,0,0,0-2.42-2.421Z" transform="translate(7473.526 1147.737)" fill="#fff"/>
      </g>
    </g>
  </g>
</svg>
