<svg xmlns="http://www.w3.org/2000/svg" width="140" height="90" viewBox="0 0 140 90">
  <g id="logo-ibm-ix" transform="translate(0 -242)">
    <rect id="padding" width="140" height="90" transform="translate(0 242)" fill="rgba(255,255,255,0.05)" opacity="0"/>
    <path id="logo" d="M7.434,20.1V18.118H5.369V7.064H7.434V5.085H.9V7.064H2.939V18.118H.9V20.1Zm3.054,0H17.8a4.04,4.04,0,0,0,3.871-4.323,3.306,3.306,0,0,0-3.14-3.505v-.129c1.226-.108,2.6-.925,2.6-3.183a3.671,3.671,0,0,0-4-3.871H10.487Zm2.43-6.645H17.09a1.806,1.806,0,0,1,2.022,1.914V16.1A1.806,1.806,0,0,1,17.09,18.01H12.918Zm0-6.28h3.763a1.682,1.682,0,0,1,1.892,1.785v.688a1.682,1.682,0,0,1-1.892,1.785H12.918ZM24.659,20.1h2.323V8.612h.108l1.183,2.43,3.29,6,3.29-6,1.183-2.43h.108V20.1h2.323V5.085H35.713L31.692,12.72h-.129L27.541,5.085H24.659ZM48.251,6.913c.968,0,1.376-.516,1.376-1.226V5.322c0-.71-.409-1.226-1.376-1.226s-1.4.516-1.4,1.226v.366C46.853,6.4,47.283,6.913,48.251,6.913ZM47.068,20.1h2.344V8.913H47.068Zm4.473,0h2.688l3.591-5.978h.065L61.52,20.1h2.86l-4.925-7.7,4.731-7.312H61.5l-3.462,5.591h-.043L54.573,5.085h-2.86L56.4,12.419Z" transform="translate(37.104 274.904)" fill="#fff"/>
  </g>
</svg>
