<svg xmlns="http://www.w3.org/2000/svg" width="140" height="90" viewBox="0 0 140 90"><g transform="translate(0 34)"><rect width="140" height="90" transform="translate(0 -34)" fill="rgba(255,255,255,0.05)" opacity="0"/><g transform="translate(0 1)"><path d="M.023,20.573H70V.107H.023Z" transform="translate(-0.023 -0.107)" fill="#fff" fill-rule="evenodd" opacity="0.1"/><path d="M118.955,20.573h70.026V.107H118.955Z" transform="translate(-48.981 -0.107)" fill="#fff" fill-rule="evenodd" opacity="0.2"/><g transform="translate(42.555 4.242)"><path d="M6.791,4.488H5.5L3.857,8.335c-.188.431-.324.811-.449,1.17H3.386c-.125-.369-.282-.79-.439-1.2L1.455,4.488H.076L2.864,11.28h.908Z" transform="translate(-0.076 -1.863)" fill="#fffffe" fill-rule="evenodd"/><path d="M12.8,11.232h1.263V4.472H12.8Z" transform="translate(-5.315 -1.856)" fill="#fffffe" fill-rule="evenodd"/><path d="M21.879,7.816a2.219,2.219,0,0,1-2.485,2.37h-.8V5.518h.794a2.2,2.2,0,0,1,2.5,2.3M23.226,7.8c0-1.98-1.316-3.324-3.812-3.324H17.326v6.76h2.005c2.433,0,3.895-1.416,3.895-3.437" transform="translate(-7.177 -1.856)" fill="#fffffe" fill-rule="evenodd"/><path d="M30.342,6.112a5.632,5.632,0,0,0,.268.82l1.619,4.278h1.243L30.8,4.419h-.918L27.207,11.21H28.45l1.619-4.278a5.544,5.544,0,0,0,.266-.82Z" transform="translate(-11.244 -1.834)" fill="#fffffe" fill-rule="evenodd"/><path d="M59.556,6.513V4.482h-.317c-.093.223-.224.316-.392.316-.448,0-.653-.316-1.344-.316a1.985,1.985,0,0,0-2.015,1.9C55.488,8.619,59,8.116,59,9.962A1.123,1.123,0,0,1,57.839,11.1a2.206,2.206,0,0,1-2.127-1.919h-.317v2.255h.317a.45.45,0,0,1,.429-.448c.317,0,.952.485,1.68.485a2.087,2.087,0,0,0,2.09-2.032c0-2.46-3.471-2.013-3.471-3.69,0-.54.448-.894,1.1-.894a1.688,1.688,0,0,1,1.642,1.658Z" transform="translate(-22.848 -1.86)" fill="#fffffe" fill-rule="evenodd"/><path d="M66.08,6.926c.074-1.23.728-2.051,1.829-2.051a1.789,1.789,0,0,1,1.773,2.051Zm4.852.317a2.776,2.776,0,0,0-2.855-2.759,3.41,3.41,0,0,0-3.322,3.56,3.377,3.377,0,0,0,3.565,3.43,3.127,3.127,0,0,0,2.725-1.417V9.572c-.952,1.063-1.418,1.379-2.333,1.379-.9,0-2.668-.745-2.631-3.709Z" transform="translate(-26.701 -1.861)" fill="#fffffe" fill-rule="evenodd"/><path d="M82.932,4.484h-.317a.542.542,0,0,1-.448.373A8.848,8.848,0,0,0,80.3,4.484a3.532,3.532,0,0,0-3.415,3.653,3.177,3.177,0,0,0,3.322,3.337,3.46,3.46,0,0,0,2.911-1.454V9.535a3.145,3.145,0,0,1-2.463,1.38c-1.344,0-2.482-1.51-2.482-3.318,0-1.621.914-2.74,2.221-2.74a2.3,2.3,0,0,1,2.221,1.957h.317Z" transform="translate(-31.695 -1.861)" fill="#fffffe" fill-rule="evenodd"/><path d="M95.46,4.484h-.317L92.9,4.689v.317c1.139.018,1.288.13,1.288,1.043v3.56a2.222,2.222,0,0,1-1.754,1.081A1.39,1.39,0,0,1,90.944,9.2V4.484h-.317L88.5,4.689v.317c.952,0,1.176.242,1.176.876V9.256a2.121,2.121,0,0,0,2.165,2.218,2.847,2.847,0,0,0,2.314-1.286h.037V11.27H96.6v-.317c-.9,0-1.138-.205-1.138-.932Z" transform="translate(-36.475 -1.861)" fill="#fffffe" fill-rule="evenodd"/><path d="M106.007,6.123c.6-.578.971-.8,1.4-.8a3.778,3.778,0,0,1,1.568.578l.5-1.175a2.062,2.062,0,0,0-1.213-.521c-.448,0-1.026.373-2.258,1.435V4.2h-.317l-2.314.2v.317c1.12,0,1.362.112,1.362,1.081V9.568c0,1.006-.112,1.267-1.12,1.267v.317h3.49v-.317c-.877,0-1.1-.2-1.1-.931Z" transform="translate(-42.599 -1.745)" fill="#fffffe" fill-rule="evenodd"/><path d="M116.8.026a.811.811,0,0,0-.821.8.828.828,0,0,0,.821.82.812.812,0,0,0,.8-.82A.8.8,0,0,0,116.8.026Zm.616,2.473h-.317l-2.2.205v.317c.97,0,1.25.124,1.25,1.037V8.1c0,.783-.242,1.013-1.25,1.013v.317h3.62V9.115c-.933,0-1.1-.361-1.1-1.013Z" transform="translate(-47.34 -0.026)" fill="#fffffe" fill-rule="evenodd"/><path d="M132.828,6.077c-.244-.56-.09-.906.415-.981V4.611h-3.181V5.1a1.3,1.3,0,0,1,1.406.981l2.318,5.356-.444,1.15c-.412,1.159-.88,1.626-1.684,1.626a1.43,1.43,0,0,1-.636-.15l-.431,1.14a1.449,1.449,0,0,0,.823.28c.8,0,1.666-.878,2.189-2.411l2.221-6.551c.374-1.1.8-1.551,1.516-1.551V4.611H135v.356c.73.037.785.467.524,1.252l-1.16,3.495Z" transform="translate(-53.584 -1.913)" fill="#fffffe" fill-rule="evenodd"/><path d="M124.385.83h-.318a5.043,5.043,0,0,1-2.207,2.392V3.54h1.253V7.969a1.831,1.831,0,0,0,1.909,1.925,2.546,2.546,0,0,0,2-1.1l-.207-.243a1.531,1.531,0,0,1-1.234.636c-.73,0-1.2-.467-1.2-1.383V3.54H126.7V3.054h-2.313Z" transform="translate(-50.208 -0.357)" fill="#fffffe" fill-rule="evenodd"/></g></g></g></svg>