<svg xmlns="http://www.w3.org/2000/svg" width="140" height="90" viewBox="0 0 140 90">
  <g id="logo-barmer" transform="translate(0 -242)">
    <rect id="Rectangle_259" data-name="Rectangle 259" width="140" height="90" transform="translate(0 242)" fill="rgba(255,255,255,0.05)" opacity="0"/>
    <g id="logo-barmer-html" transform="translate(24 273.001)">
      <path id="Path_431" data-name="Path 431" d="M19.05,14.488h3.7c.032,0,.063-.033.063-.1l-1.88-5.1c-.032-.032-.032-.032-.063,0l-1.88,5.1c0,.033.032.1.064.1Zm-4.461,5.48a.438.438,0,0,1-.414-.605L18.7,7.414A.654.654,0,0,1,19.3,7h3.41a.654.654,0,0,1,.605.414l4.461,11.949a.45.45,0,0,1-.414.605h-2.1a.556.556,0,0,1-.542-.383l-.987-2.708c0-.033-.032-.033-.065-.033H18.158a.113.113,0,0,0-.065.033l-.986,2.708a.621.621,0,0,1-.542.382H14.59ZM65.363,9.358h6.659a.5.5,0,0,0,.509-.51V7.509A.5.5,0,0,0,72.022,7H62.846a.5.5,0,0,0-.51.509V19.458a.5.5,0,0,0,.51.51h9.176a.5.5,0,0,0,.509-.51V18.025a.5.5,0,0,0-.509-.509H65.363a.068.068,0,0,1-.065-.065V14.71a.068.068,0,0,1,.065-.063h6.659a.5.5,0,0,0,.509-.51v-1.4a.5.5,0,0,0-.509-.509H65.363a.068.068,0,0,1-.065-.065V9.423a.068.068,0,0,1,.065-.063ZM9.7,10.728c0-1.211-1.051-1.369-2.072-1.369h-3.5a.068.068,0,0,0-.063.063V12.1a.068.068,0,0,0,.063.063H7.66c.956,0,2.039-.159,2.039-1.434Zm0,5.289c0-1.243-1.051-1.4-2.072-1.4h-3.5a.068.068,0,0,0-.063.063v2.771a.068.068,0,0,0,.063.065H7.66c.956-.031,2.039-.191,2.039-1.5Zm1.275-2.836c-.032,0-.032.033,0,.064a3.165,3.165,0,0,1,1.848,3.217,3.468,3.468,0,0,1-3.7,3.505H1.511A.5.5,0,0,1,1,19.458V7.51A.5.5,0,0,1,1.51,7H9.188a3.3,3.3,0,0,1,3.569,3.155,2.965,2.965,0,0,1-1.784,3.027Zm73.284-2.454c0-1.211-1.052-1.369-2.072-1.369h-3.5a.069.069,0,0,0-.065.063V12.1a.069.069,0,0,0,.065.063h3.537c.955,0,2.039-.159,2.039-1.434Zm.764,2.741c-.031,0-.031.032,0,.032a3,3,0,0,1,2.008,2.9v3.027a.5.5,0,0,1-.51.51H84.544a.5.5,0,0,1-.51-.51V16.655c0-1.179-.669-2.072-2.421-2.072H78.681a.069.069,0,0,0-.065.064v4.779a.5.5,0,0,1-.509.51H76.2a.5.5,0,0,1-.509-.51V7.509A.5.5,0,0,1,76.2,7h6.978c2.326,0,3.951,1.051,3.951,3.473a2.879,2.879,0,0,1-2.1,2.995Zm-46.71-2.741c0-1.211-1.051-1.369-2.07-1.369H32.7a.068.068,0,0,0-.063.063V12.1a.068.068,0,0,0,.063.063H36.24c.988,0,2.071-.159,2.071-1.434Zm.765,2.741c-.032,0-.032.032,0,.032a3,3,0,0,1,2.007,2.9v3.027a.5.5,0,0,1-.509.51H38.6a.5.5,0,0,1-.51-.51V16.655c0-1.179-.669-2.072-2.421-2.072H32.735a.068.068,0,0,0-.063.064v4.779a.5.5,0,0,1-.51.51H30.25a.5.5,0,0,1-.509-.51V7.509A.5.5,0,0,1,30.25,7h6.979c2.325,0,3.95,1.051,3.95,3.473A2.946,2.946,0,0,1,39.076,13.468Zm17.079,5.99V10.6c0-.128-.033-.128-.065,0l-3.025,8.952A.685.685,0,0,1,52.46,20H50.835a.65.65,0,0,1-.605-.447L47.2,10.6c-.033-.128-.065-.128-.065,0v8.856a.5.5,0,0,1-.509.511H44.781a.5.5,0,0,1-.51-.51V7.509A.5.5,0,0,1,44.78,7h3.759a.622.622,0,0,1,.605.446L51.6,15.03c.032.063.063.063.063,0l2.485-7.584A.685.685,0,0,1,54.752,7h3.759a.5.5,0,0,1,.51.51V19.458a.5.5,0,0,1-.51.51H56.664a.5.5,0,0,1-.509-.51Z" transform="translate(2 1)" fill="#fff" fill-rule="evenodd"/>
    </g>
  </g>
</svg>
