<svg xmlns="http://www.w3.org/2000/svg" width="140" height="90" viewBox="0 0 140 90"><g transform="translate(0 -133)"><rect width="140" height="90" transform="translate(0 133)" fill="rgba(255,255,255,0.05)" opacity="0"/><path d="M1501.338,1707a1.225,1.225,0,0,1-.888-.371,1.194,1.194,0,0,1-.377-.876v-8.3a5.649,5.649,0,0,1,1.779-4.181,6.074,6.074,0,0,1,8.5.01,5.932,5.932,0,0,1-4.257,10.124,5.122,5.122,0,0,1-3.46-1.029v3.375a1.2,1.2,0,0,1-.377.876,1.232,1.232,0,0,1-.89.371Zm14.786,0a1.225,1.225,0,0,1-.888-.371,1.194,1.194,0,0,1-.377-.876v-8.3a5.643,5.643,0,0,1,1.779-4.181,6.074,6.074,0,0,1,8.5.01,5.932,5.932,0,0,1-4.257,10.124,5.132,5.132,0,0,1-3.462-1.029v3.375a1.188,1.188,0,0,1-.377.876,1.225,1.225,0,0,1-.888.371Zm-20.189-14.668a1.553,1.553,0,0,0-1.553,1.553v1.346a5.177,5.177,0,0,1-5.176,5.177h0a5.176,5.176,0,0,1-5.177-5.177v-.307a1.551,1.551,0,0,0-1.553-1.553h0a1.549,1.549,0,0,0-1.553,1.553v.311a8.283,8.283,0,0,0,8.283,8.282h0a8.282,8.282,0,0,0,8.283-8.282v-1.346a1.552,1.552,0,0,0-1.553-1.553Zm53.836-.789a1.256,1.256,0,0,1,.9.362,1.18,1.18,0,0,1,.367.867v.021a1.147,1.147,0,0,1-.367.857,1.247,1.247,0,0,1-.9.362h-.6a2.017,2.017,0,0,0-1.453.576,1.923,1.923,0,0,0-.6,1.4v6.22a1.111,1.111,0,0,1-.377.857,1.234,1.234,0,0,1-.889.362h-.031a1.232,1.232,0,0,1-.888-.362,1.115,1.115,0,0,1-.375-.857v-6.22a4.307,4.307,0,0,1,1.348-3.145,4.531,4.531,0,0,1,3.257-1.3Zm-8.152,5.847a1.2,1.2,0,0,1-.093.532,1.173,1.173,0,0,1-.251.362,1.191,1.191,0,0,1-.894.377q-1.6.01-4.216.029-3.243.028-3.806.039a2.984,2.984,0,0,0,1.878,1.9,3.41,3.41,0,0,0,2.12.216,3.36,3.36,0,0,0,1.8-1.015,1.184,1.184,0,0,1,1.452-.29,1.214,1.214,0,0,1,.735.905,1.153,1.153,0,0,1-.054.729,1.311,1.311,0,0,1-.255.375,5.7,5.7,0,0,1-3.122,1.741,6.069,6.069,0,0,1-6.883-3.671,5.863,5.863,0,0,1,3.35-7.694,6.062,6.062,0,0,1,8.237,5.467Zm-35.524,3.474a3.41,3.41,0,1,0,0-6.818,3.409,3.409,0,1,0,0,6.818Zm14.786,0a3.41,3.41,0,1,0-2.458-5.83,3.415,3.415,0,0,0,2.456,5.83Zm16.084-6.5a3.37,3.37,0,0,0-2.655-.066,3.291,3.291,0,0,0-1.889,1.82l-.029.067,6.4-.035a2.971,2.971,0,0,0-1.829-1.785Zm-54.491-7.208a1.864,1.864,0,1,1-1.864,1.864,1.864,1.864,0,0,1,1.864-1.864Zm12.368,3.164a1.145,1.145,0,0,1-.724-.542h0a1.162,1.162,0,0,1,.427-1.592l1.859-1.073a.828.828,0,0,1,1.214.932.819.819,0,0,1-.385.5l-.841.484s.511.112,1,.215a.836.836,0,0,1,.63,1.033h0a.8.8,0,0,1-.959.572l-2.216-.532Z" transform="translate(-1445.613 -1519.001)" fill="#fff" fill-rule="evenodd"/></g></svg>