<svg xmlns="http://www.w3.org/2000/svg" width="281.712" height="80" viewBox="0 0 281.712 80"><path d="M1563.514,1767.006a4.9,4.9,0,0,1-3.553-1.483,4.78,4.78,0,0,1-1.508-3.5v-33.2a22.6,22.6,0,0,1,7.115-16.723,24.29,24.29,0,0,1,34.01.041,23.412,23.412,0,0,1,0,33.538,23.4,23.4,0,0,1-17.03,6.958q-9.12,0-13.841-4.116v13.5a4.781,4.781,0,0,1-1.507,3.5,4.933,4.933,0,0,1-3.562,1.483Zm59.149,0a4.9,4.9,0,0,1-3.553-1.483,4.78,4.78,0,0,1-1.507-3.5v-33.2a22.572,22.572,0,0,1,7.115-16.723,24.291,24.291,0,0,1,34.01.041,23.432,23.432,0,0,1,0,33.538,23.41,23.41,0,0,1-17.03,6.958q-9.119,0-13.849-4.116v13.5a4.749,4.749,0,0,1-1.507,3.5,4.9,4.9,0,0,1-3.553,1.483ZM1541.9,1708.33a6.215,6.215,0,0,0-6.212,6.212v5.384a20.71,20.71,0,0,1-20.708,20.708h0a20.7,20.7,0,0,1-20.707-20.708v-1.242a6.207,6.207,0,0,0-6.212-6.212h0a6.194,6.194,0,0,0-6.212,6.212v1.242a33.134,33.134,0,0,0,33.132,33.132h0a33.133,33.133,0,0,0,33.132-33.132v-5.384a6.207,6.207,0,0,0-6.212-6.212Zm215.357-3.156a5.026,5.026,0,0,1,3.6,1.449,4.722,4.722,0,0,1,1.466,3.47v.083a4.592,4.592,0,0,1-1.466,3.429,4.991,4.991,0,0,1-3.6,1.45h-2.385a8.066,8.066,0,0,0-5.806,2.3,7.7,7.7,0,0,0-2.386,5.6v24.882a4.441,4.441,0,0,1-1.507,3.429,4.938,4.938,0,0,1-3.554,1.449h-.124a4.938,4.938,0,0,1-3.554-1.449,4.461,4.461,0,0,1-1.5-3.429v-24.882a17.232,17.232,0,0,1,5.392-12.582,18.123,18.123,0,0,1,13.038-5.2Zm-32.61,23.391a4.8,4.8,0,0,1-.372,2.129,4.708,4.708,0,0,1-1,1.45,4.764,4.764,0,0,1-3.578,1.507q-6.411.037-16.864.116-12.971.112-15.224.158,1.329,4.907,7.512,7.595a13.634,13.634,0,0,0,8.482.862,13.437,13.437,0,0,0,7.206-4.059,4.737,4.737,0,0,1,5.806-1.16,4.854,4.854,0,0,1,2.94,3.62,4.611,4.611,0,0,1-.215,2.915,5.233,5.233,0,0,1-1.019,1.5,22.791,22.791,0,0,1-12.49,6.966,24.278,24.278,0,0,1-27.533-14.686,23.452,23.452,0,0,1,13.4-30.779,24.249,24.249,0,0,1,32.949,21.867Zm-142.1,13.9a13.422,13.422,0,0,0,9.79-4,13.53,13.53,0,0,0,0-19.324,13.429,13.429,0,0,0-9.79-3.951,13.592,13.592,0,0,0-9.832,3.951,13.648,13.648,0,0,0,0,19.324A13.5,13.5,0,0,0,1582.549,1742.463Zm59.148,0a13.448,13.448,0,0,0,9.79-4,13.53,13.53,0,0,0,0-19.324,13.429,13.429,0,0,0-9.79-3.951,13.577,13.577,0,0,0-9.832,3.951,13.627,13.627,0,0,0,0,19.324A13.488,13.488,0,0,0,1641.7,1742.463Zm64.342-26.008a13.481,13.481,0,0,0-10.619-.265,13.17,13.17,0,0,0-7.554,7.281l-.116.265,25.594-.14Q1711.953,1719.023,1706.039,1716.455Zm-217.974-28.833a7.455,7.455,0,1,1-7.455,7.455A7.455,7.455,0,0,1,1488.065,1687.622Zm49.483,12.657a4.585,4.585,0,0,1-2.9-2.17h0a4.65,4.65,0,0,1,1.706-6.37c2.369-1.367,5.3-3.056,7.438-4.29a3.311,3.311,0,0,1,4.854,3.727,3.279,3.279,0,0,1-1.541,2.013c-1.64.944-3.363,1.938-3.363,1.938s2.046.447,3.992.861a3.337,3.337,0,0,1,2.518,4.133h0a3.2,3.2,0,0,1-3.835,2.286C1543.718,1701.753,1539.842,1700.825,1537.547,1700.279Z" transform="translate(-1480.61 -1687.006)" fill="#0f2e30" fill-rule="evenodd"/></svg>