<svg xmlns="http://www.w3.org/2000/svg" width="140" height="90" viewBox="0 0 140 90">
  <g id="logo-2brains" transform="translate(-183 -242)">
    <rect id="Rectangle_259" data-name="Rectangle 259" width="140" height="90" transform="translate(183 242)" fill="rgba(255,255,255,0.05)" opacity="0"/>
    <g id="Symbols" transform="translate(207.489 272)">
      <g id="Group-Copy-3" transform="translate(0.511 0)">
        <g id="Group">
          <g id="Group_246" data-name="Group 246">
            <path id="Shape" d="M21.289,27.985a10.017,10.017,0,0,1-5.62-1.505c-3.365-2.2-4.988-6.689-5.758-10.072-.888-3.9-.778-6.95.332-9.335h0A11.992,11.992,0,0,1,20.029.08,13.786,13.786,0,0,1,32.41,5.313a15.291,15.291,0,0,1,2.673,11.614,13.278,13.278,0,0,1-6.4,9.418A14.3,14.3,0,0,1,24,27.767,17.991,17.991,0,0,1,21.289,27.985Zm.228-26.849a12.114,12.114,0,0,0-1.364.075,10.88,10.88,0,0,0-8.872,6.342h0c-1,2.147-1.084,4.96-.254,8.6.724,3.177,2.226,7.383,5.271,9.372,1.883,1.23,4.345,1.594,7.525,1.115a13.212,13.212,0,0,0,4.316-1.3,12.134,12.134,0,0,0,5.816-8.612A14.114,14.114,0,0,0,31.5,6,12.613,12.613,0,0,0,21.517,1.135Z" transform="translate(-4.584 0)" fill="#88868c"/>
            <ellipse id="Oval" cx="1.306" cy="1.299" rx="1.306" ry="1.299" transform="translate(28.763 12.4)" fill="#88868c"/>
          </g>
          <g id="Group_245" data-name="Group 245">
            <path id="Shape-2" data-name="Shape" d="M12.7,27.014a11.658,11.658,0,0,1-5.683-1.273c-3.443-1.878-5.106-5.728-5.9-8.627-.917-3.36-.8-6,.349-8.059l.5.275-.5-.275A12.25,12.25,0,0,1,11.02,3.129c4.9-.568,9.988,1.161,12.966,4.407a11.542,11.542,0,0,1,2.751,10.012,11.6,11.6,0,0,1-6.551,8.079,16.71,16.71,0,0,1-4.746,1.2A21.789,21.789,0,0,1,12.7,27.014Zm.2-22.856a15.509,15.509,0,0,0-1.744.1A10.979,10.979,0,0,0,2.468,9.606c-1,1.792-1.081,4.151-.245,7.211.732,2.686,2.255,6.241,5.343,7.927,1.935,1.055,4.463,1.37,7.727.958a15.485,15.485,0,0,0,4.423-1.115,10.443,10.443,0,0,0,5.9-7.274A10.39,10.39,0,0,0,23.141,8.3,14.107,14.107,0,0,0,12.9,4.159Z" transform="translate(-0.511 -1.398)" fill="#c3c2c5"/>
            <ellipse id="Oval-2" data-name="Oval" cx="1.306" cy="1.299" rx="1.306" ry="1.299" transform="translate(16.434 22.873)" fill="#c3c2c5"/>
          </g>
          <g id="Group_244" data-name="Group 244">
            <path id="Shape-3" data-name="Shape" d="M12.7,35.168A11.658,11.658,0,0,1,7.018,33.9c-3.443-1.878-5.106-5.728-5.9-8.627-.917-3.36-.8-6,.349-8.059l.5.275-.5-.275a12.25,12.25,0,0,1,9.549-5.926c4.9-.571,9.988,1.161,12.966,4.407a11.367,11.367,0,0,1-3.8,18.091,16.712,16.712,0,0,1-4.746,1.2A21.79,21.79,0,0,1,12.7,35.168Zm.2-22.856a15.519,15.519,0,0,0-1.744.1A10.979,10.979,0,0,0,2.468,17.76c-1,1.792-1.081,4.151-.245,7.21.732,2.686,2.255,6.241,5.343,7.927,1.935,1.055,4.463,1.37,7.727.958a15.483,15.483,0,0,0,4.423-1.115,10.236,10.236,0,0,0,3.425-16.287A14.107,14.107,0,0,0,12.9,12.313Z" transform="translate(-0.511 -5.168)" fill="#fff"/>
            <ellipse id="Oval-3" data-name="Oval" cx="1.306" cy="1.299" rx="1.306" ry="1.299" transform="translate(9.904 5.338)" fill="#fff"/>
          </g>
        </g>
        <g id="Group-2" data-name="Group" transform="translate(37.406 9.813)">
          <path id="Path" d="M.186,2.935C.287,1.167,1.808.58,3.343.58c1.666,0,3.143.748,3.143,2.388,0,1.878-1.331,2.422-3.132,2.422-.66,0-1.611.077-1.611,1.03v.292H6.43V8.275H.1V6.407c0-2.039,1.711-2.5,3.257-2.5.57,0,1.421-.164,1.421-.912,0-.631-.55-.976-1.431-.976-.705,0-1.431.292-1.476.912Z" transform="translate(-0.096 -0.406)" fill="#fff"/>
          <path id="Shape-4" data-name="Shape" d="M18.982.761c1.487,0,2.717.651,2.717,2.063a1.624,1.624,0,0,1-1.041,1.553,1.91,1.91,0,0,1,1.241,2.2c-.235,1.228-1.286,1.781-2.852,1.781H15.12V.765h3.862Zm-2.15,2.952h2.126c.681,0,1.016-.272,1.016-.718s-.335-.772-1-.772H16.832Zm0,3.17h2.147c.785,0,1.151-.335,1.151-.869s-.4-.889-1.175-.889H16.828V6.883Z" transform="translate(-7.044 -0.49)" fill="#fff"/>
          <path id="Shape-5" data-name="Shape" d="M37.614,8.359H35.678l-2-2.5H32.411v2.5H30.665V.761h3.713a2.62,2.62,0,0,1,2.9,2.563,2.291,2.291,0,0,1-1.812,2.388L37.61,8.231v.127Zm-5.2-6.142V4.431H34.4a1.071,1.071,0,0,0,1.151-1.063,1.134,1.134,0,0,0-1.175-1.151Z" transform="translate(-14.232 -0.49)" fill="#fff"/>
          <path id="Shape-6" data-name="Shape" d="M50.935,7.057H46.918l-.57,1.3H44.467l3.513-7.6h1.9l3.513,7.6H51.5ZM48.93,2.475,47.575,5.558h2.7Z" transform="translate(-20.615 -0.49)" fill="#fff"/>
          <path id="Path-2" data-name="Path" d="M63.034,8.359V.761h1.736v7.6Z" transform="translate(-29.201 -0.49)" fill="#fff"/>
          <path id="Path-3" data-name="Path" d="M75.371,5.7,75.26,3.311V.761h1.756v7.6h-1.5L71.623,3.5l.066,2.5V8.359H69.922V.761h1.5Z" transform="translate(-32.387 -0.49)" fill="#fff"/>
          <path id="Path-4" data-name="Path" d="M90.891,2.362a2.651,2.651,0,0,0-1.812-.641c-.771,0-1.4.315-1.4.835,0,.694.681.825,1.691.912,1.545.131,3.008.7,3.008,2.465,0,1.694-1.611,2.432-3.3,2.442a3.963,3.963,0,0,1-3.423-1.563L86.694,5.76a3.16,3.16,0,0,0,2.4,1.073c.93,0,1.566-.359,1.566-.9.01-.641-.515-.933-1.576-1.02-1.656-.151-3.132-.553-3.112-2.345.01-1.509,1.487-2.311,3.1-2.311A3.5,3.5,0,0,1,91.987,1.43Z" transform="translate(-39.661 -0.256)" fill="#fff"/>
        </g>
      </g>
    </g>
  </g>
</svg>
