<svg xmlns="http://www.w3.org/2000/svg" xmlns:xlink="http://www.w3.org/1999/xlink" width="431.453" height="204.096" viewBox="0 0 431.453 204.096">
  <defs>
    <linearGradient id="linear-gradient" x1="0.945" y1="0.038" x2="0.087" y2="0.939" gradientUnits="objectBoundingBox">
      <stop offset="0" stop-color="#f0f"/>
      <stop offset="1" stop-color="tomato"/>
    </linearGradient>
  </defs>
  <g id="files" transform="translate(-763.004 -450.904)">
    <g id="file-js" transform="translate(697 126.003)">
      <path id="Path_489" data-name="Path 489" d="M-1069-5510a8.008,8.008,0,0,1-8-8v-34a8.009,8.009,0,0,1,8-8h16.1l2,2h0l12.128,12.129,1.776,1.775h0v.094h0v26a8.008,8.008,0,0,1-8,8Zm-6-42v34a6.007,6.007,0,0,0,6,6h24a6.007,6.007,0,0,0,6-6v-26h-8a6.006,6.006,0,0,1-6-6v-8h-16A6.007,6.007,0,0,0-1075-5552Z" transform="translate(1295 5914.998)" fill="url(#linear-gradient)"/>
      <path id="Path_490" data-name="Path 490" d="M3.514.168A3.217,3.217,0,0,1,1.225-.637,2.98,2.98,0,0,1,.364-2.926H2.156a1.828,1.828,0,0,0,.322,1.092,1.168,1.168,0,0,0,.994.406,1.105,1.105,0,0,0,.938-.385A1.629,1.629,0,0,0,4.7-2.828V-9.8H6.5v6.972A2.941,2.941,0,0,1,5.691-.609,3,3,0,0,1,3.514.168Zm8.232,0A4.605,4.605,0,0,1,9.842-.2a3.06,3.06,0,0,1-1.3-1.064,2.985,2.985,0,0,1-.49-1.687H9.94a1.672,1.672,0,0,0,.5,1.155,1.75,1.75,0,0,0,1.3.469,1.74,1.74,0,0,0,1.134-.343,1.123,1.123,0,0,0,.42-.917,1.2,1.2,0,0,0-.371-.938,2.8,2.8,0,0,0-.987-.546l-1.316-.448A4.333,4.333,0,0,1,8.883-5.53a2.258,2.258,0,0,1-.6-1.638A2.5,2.5,0,0,1,8.7-8.659,2.812,2.812,0,0,1,9.87-9.625a4.029,4.029,0,0,1,1.708-.343,4.042,4.042,0,0,1,1.729.35,2.833,2.833,0,0,1,1.176.98,2.771,2.771,0,0,1,.455,1.5H13.02a1.338,1.338,0,0,0-.4-.917,1.419,1.419,0,0,0-1.071-.4,1.529,1.529,0,0,0-.987.287,1.029,1.029,0,0,0-.4.875,1.011,1.011,0,0,0,.308.777,2.473,2.473,0,0,0,.84.483q.532.2,1.218.42a8.284,8.284,0,0,1,1.33.588,2.726,2.726,0,0,1,.966.889,2.539,2.539,0,0,1,.364,1.421A2.74,2.74,0,0,1,14.8-1.288,2.819,2.819,0,0,1,13.636-.231,4.072,4.072,0,0,1,11.746.168Z" transform="translate(224 398)" fill="#fff"/>
    </g>
    <g id="file-js-2" data-name="file-js" transform="translate(697 240.002)">
      <path id="Path_489-2" data-name="Path 489" d="M-1069-5510a8.008,8.008,0,0,1-8-8v-34a8.009,8.009,0,0,1,8-8h16.1l2,2h0l12.128,12.129,1.776,1.775h0v.094h0v26a8.008,8.008,0,0,1-8,8Zm-6-42v34a6.007,6.007,0,0,0,6,6h24a6.007,6.007,0,0,0,6-6v-26h-8a6.006,6.006,0,0,1-6-6v-8h-16A6.007,6.007,0,0,0-1075-5552Z" transform="translate(1295 5914.998)" fill="url(#linear-gradient)"/>
      <path id="Path_490-2" data-name="Path 490" d="M3.514.168A3.217,3.217,0,0,1,1.225-.637,2.98,2.98,0,0,1,.364-2.926H2.156a1.828,1.828,0,0,0,.322,1.092,1.168,1.168,0,0,0,.994.406,1.105,1.105,0,0,0,.938-.385A1.629,1.629,0,0,0,4.7-2.828V-9.8H6.5v6.972A2.941,2.941,0,0,1,5.691-.609,3,3,0,0,1,3.514.168Zm8.232,0A4.605,4.605,0,0,1,9.842-.2a3.06,3.06,0,0,1-1.3-1.064,2.985,2.985,0,0,1-.49-1.687H9.94a1.672,1.672,0,0,0,.5,1.155,1.75,1.75,0,0,0,1.3.469,1.74,1.74,0,0,0,1.134-.343,1.123,1.123,0,0,0,.42-.917,1.2,1.2,0,0,0-.371-.938,2.8,2.8,0,0,0-.987-.546l-1.316-.448A4.333,4.333,0,0,1,8.883-5.53a2.258,2.258,0,0,1-.6-1.638A2.5,2.5,0,0,1,8.7-8.659,2.812,2.812,0,0,1,9.87-9.625a4.029,4.029,0,0,1,1.708-.343,4.042,4.042,0,0,1,1.729.35,2.833,2.833,0,0,1,1.176.98,2.771,2.771,0,0,1,.455,1.5H13.02a1.338,1.338,0,0,0-.4-.917,1.419,1.419,0,0,0-1.071-.4,1.529,1.529,0,0,0-.987.287,1.029,1.029,0,0,0-.4.875,1.011,1.011,0,0,0,.308.777,2.473,2.473,0,0,0,.84.483q.532.2,1.218.42a8.284,8.284,0,0,1,1.33.588,2.726,2.726,0,0,1,.966.889,2.539,2.539,0,0,1,.364,1.421A2.74,2.74,0,0,1,14.8-1.288,2.819,2.819,0,0,1,13.636-.231,4.072,4.072,0,0,1,11.746.168Z" transform="translate(224 398)" fill="#fff"/>
    </g>
    <path id="Path_504" data-name="Path 504" d="M.78,0V-5.952H2.148l.144,1.116a2.49,2.49,0,0,1,.882-.918A2.464,2.464,0,0,1,4.488-6.1v1.62H4.056a2.44,2.44,0,0,0-.9.156,1.212,1.212,0,0,0-.618.54,2.145,2.145,0,0,0-.222,1.068V0ZM8.316.144A3.249,3.249,0,0,1,6.72-.24,2.779,2.779,0,0,1,5.628-1.32a3.2,3.2,0,0,1-.4-1.608,3.4,3.4,0,0,1,.39-1.644A2.831,2.831,0,0,1,6.7-5.694a3.173,3.173,0,0,1,1.626-.4,3.065,3.065,0,0,1,1.548.384,2.758,2.758,0,0,1,1.05,1.05A2.949,2.949,0,0,1,11.3-3.18q0,.132-.006.276t-.018.3H6.756a1.55,1.55,0,0,0,.486,1.092,1.527,1.527,0,0,0,1.062.4,1.4,1.4,0,0,0,.786-.21,1.3,1.3,0,0,0,.474-.546h1.56a2.828,2.828,0,0,1-.558,1.026,2.751,2.751,0,0,1-.96.726A3.035,3.035,0,0,1,8.316.144Zm.012-4.992a1.636,1.636,0,0,0-1,.318,1.474,1.474,0,0,0-.552.966H9.744A1.3,1.3,0,0,0,9.312-4.5,1.437,1.437,0,0,0,8.328-4.848ZM14.652.144A2.816,2.816,0,0,1,13.392-.1a1.7,1.7,0,0,1-.732-.654,1.742,1.742,0,0,1-.24-.9A1.638,1.638,0,0,1,13.068-3a3.082,3.082,0,0,1,1.944-.516h1.512V-3.66a1.1,1.1,0,0,0-.348-.9,1.31,1.31,0,0,0-.864-.288,1.484,1.484,0,0,0-.816.222.956.956,0,0,0-.432.654h-1.5A2.093,2.093,0,0,1,13-5.1a2.452,2.452,0,0,1,.978-.738A3.37,3.37,0,0,1,15.324-6.1a2.953,2.953,0,0,1,2,.636,2.257,2.257,0,0,1,.732,1.8V0H16.752l-.144-.96a2.218,2.218,0,0,1-.738.792A2.176,2.176,0,0,1,14.652.144ZM15-1.056a1.271,1.271,0,0,0,1.026-.432,2.1,2.1,0,0,0,.462-1.068H15.18a1.364,1.364,0,0,0-.876.222.687.687,0,0,0-.264.546.629.629,0,0,0,.264.54A1.157,1.157,0,0,0,15-1.056Zm7.44,1.2a3.2,3.2,0,0,1-1.608-.4,2.883,2.883,0,0,1-1.1-1.1,3.223,3.223,0,0,1-.4-1.62,3.223,3.223,0,0,1,.4-1.62,2.883,2.883,0,0,1,1.1-1.1,3.2,3.2,0,0,1,1.608-.4,3.076,3.076,0,0,1,1.92.594,2.656,2.656,0,0,1,1,1.638h-1.62a1.184,1.184,0,0,0-.474-.678,1.425,1.425,0,0,0-.834-.246,1.416,1.416,0,0,0-1.08.48A1.887,1.887,0,0,0,20.9-2.976a1.887,1.887,0,0,0,.444,1.332,1.416,1.416,0,0,0,1.08.48,1.45,1.45,0,0,0,.834-.24,1.16,1.16,0,0,0,.474-.684h1.62a2.714,2.714,0,0,1-1,1.62A3.015,3.015,0,0,1,22.44.144ZM29.292,0a2.314,2.314,0,0,1-1.5-.456,1.983,1.983,0,0,1-.564-1.62V-4.668h-1.02V-5.952h1.02l.18-1.6h1.356v1.6h1.608v1.284H28.764v2.6a.764.764,0,0,0,.186.594.984.984,0,0,0,.642.162h.744V0ZM36.6.144A2.816,2.816,0,0,1,35.34-.1a1.7,1.7,0,0,1-.732-.654,1.742,1.742,0,0,1-.24-.9A1.638,1.638,0,0,1,35.016-3a3.081,3.081,0,0,1,1.944-.516h1.512V-3.66a1.1,1.1,0,0,0-.348-.9,1.31,1.31,0,0,0-.864-.288,1.484,1.484,0,0,0-.816.222.956.956,0,0,0-.432.654h-1.5A2.093,2.093,0,0,1,34.95-5.1a2.452,2.452,0,0,1,.978-.738A3.37,3.37,0,0,1,37.272-6.1a2.953,2.953,0,0,1,2,.636,2.257,2.257,0,0,1,.732,1.8V0H38.7l-.144-.96a2.218,2.218,0,0,1-.738.792A2.176,2.176,0,0,1,36.6.144Zm.348-1.2a1.271,1.271,0,0,0,1.026-.432,2.1,2.1,0,0,0,.462-1.068H37.128a1.364,1.364,0,0,0-.876.222.687.687,0,0,0-.264.546.629.629,0,0,0,.264.54A1.157,1.157,0,0,0,36.948-1.056Zm4.524,3.7V-5.952H42.84l.168.852a2.734,2.734,0,0,1,.762-.7A2.268,2.268,0,0,1,45-6.1a2.794,2.794,0,0,1,1.5.408,2.923,2.923,0,0,1,1.044,1.116,3.318,3.318,0,0,1,.384,1.608,3.283,3.283,0,0,1-.384,1.6A2.889,2.889,0,0,1,46.5-.258a2.826,2.826,0,0,1-1.5.4,2.6,2.6,0,0,1-1.176-.252,2.12,2.12,0,0,1-.816-.708V2.64Zm3.2-3.84a1.622,1.622,0,0,0,1.212-.492,1.745,1.745,0,0,0,.48-1.272,1.786,1.786,0,0,0-.48-1.284,1.6,1.6,0,0,0-1.212-.5,1.607,1.607,0,0,0-1.218.5,1.778,1.778,0,0,0-.474,1.278A1.778,1.778,0,0,0,43.458-1.7,1.607,1.607,0,0,0,44.676-1.2ZM49.3,2.64V-5.952h1.368l.168.852a2.734,2.734,0,0,1,.762-.7,2.268,2.268,0,0,1,1.23-.3,2.794,2.794,0,0,1,1.5.408,2.923,2.923,0,0,1,1.044,1.116,3.318,3.318,0,0,1,.384,1.608,3.283,3.283,0,0,1-.384,1.6,2.889,2.889,0,0,1-1.044,1.1,2.826,2.826,0,0,1-1.5.4,2.6,2.6,0,0,1-1.176-.252,2.12,2.12,0,0,1-.816-.708V2.64ZM52.5-1.2a1.622,1.622,0,0,0,1.212-.492,1.745,1.745,0,0,0,.48-1.272,1.786,1.786,0,0,0-.48-1.284,1.6,1.6,0,0,0-1.212-.5,1.607,1.607,0,0,0-1.218.5,1.778,1.778,0,0,0-.474,1.278A1.778,1.778,0,0,0,51.282-1.7,1.607,1.607,0,0,0,52.5-1.2Z" transform="translate(1125 510)" fill="#fff"/>
    <path id="Path_502" data-name="Path 502" d="M3.252,0,.18-8.4H1.824L4.2-1.572,6.588-8.4h1.62L5.136,0Zm8.076.144a2.161,2.161,0,0,1-1.722-.7A3.023,3.023,0,0,1,9-2.592v-3.36h1.524v3.216a1.907,1.907,0,0,0,.312,1.176,1.16,1.16,0,0,0,.984.408,1.356,1.356,0,0,0,1.05-.456,1.824,1.824,0,0,0,.414-1.272V-5.952H14.82V0H13.464l-.12-1.008a2.093,2.093,0,0,1-.8.84A2.329,2.329,0,0,1,11.328.144Zm7.956,0a3.249,3.249,0,0,1-1.6-.384A2.779,2.779,0,0,1,16.6-1.32a3.2,3.2,0,0,1-.4-1.608,3.4,3.4,0,0,1,.39-1.644,2.831,2.831,0,0,1,1.08-1.122A3.173,3.173,0,0,1,19.3-6.1a3.065,3.065,0,0,1,1.548.384,2.758,2.758,0,0,1,1.05,1.05,2.949,2.949,0,0,1,.378,1.482q0,.132-.006.276t-.018.3H17.724a1.55,1.55,0,0,0,.486,1.092,1.527,1.527,0,0,0,1.062.4,1.4,1.4,0,0,0,.786-.21,1.3,1.3,0,0,0,.474-.546h1.56a2.828,2.828,0,0,1-.558,1.026,2.751,2.751,0,0,1-.96.726A3.035,3.035,0,0,1,19.284.144ZM19.3-4.848a1.636,1.636,0,0,0-1,.318,1.474,1.474,0,0,0-.552.966h2.964A1.3,1.3,0,0,0,20.28-4.5,1.437,1.437,0,0,0,19.3-4.848ZM28.476.144A2.816,2.816,0,0,1,27.216-.1a1.7,1.7,0,0,1-.732-.654,1.742,1.742,0,0,1-.24-.9A1.638,1.638,0,0,1,26.892-3a3.082,3.082,0,0,1,1.944-.516h1.512V-3.66A1.1,1.1,0,0,0,30-4.56a1.31,1.31,0,0,0-.864-.288,1.484,1.484,0,0,0-.816.222.956.956,0,0,0-.432.654h-1.5A2.093,2.093,0,0,1,26.826-5.1a2.452,2.452,0,0,1,.978-.738A3.37,3.37,0,0,1,29.148-6.1a2.953,2.953,0,0,1,2,.636,2.257,2.257,0,0,1,.732,1.8V0H30.576l-.144-.96a2.218,2.218,0,0,1-.738.792A2.176,2.176,0,0,1,28.476.144Zm.348-1.2a1.271,1.271,0,0,0,1.026-.432,2.1,2.1,0,0,0,.462-1.068H29a1.364,1.364,0,0,0-.876.222.687.687,0,0,0-.264.546.629.629,0,0,0,.264.54A1.157,1.157,0,0,0,28.824-1.056Zm4.524,3.7V-5.952h1.368l.168.852a2.734,2.734,0,0,1,.762-.7,2.268,2.268,0,0,1,1.23-.3,2.794,2.794,0,0,1,1.5.408A2.923,2.923,0,0,1,39.42-4.572,3.318,3.318,0,0,1,39.8-2.964a3.283,3.283,0,0,1-.384,1.6,2.889,2.889,0,0,1-1.044,1.1,2.826,2.826,0,0,1-1.5.4A2.6,2.6,0,0,1,35.7-.108a2.12,2.12,0,0,1-.816-.708V2.64Zm3.2-3.84a1.622,1.622,0,0,0,1.212-.492,1.745,1.745,0,0,0,.48-1.272,1.786,1.786,0,0,0-.48-1.284,1.6,1.6,0,0,0-1.212-.5,1.607,1.607,0,0,0-1.218.5,1.778,1.778,0,0,0-.474,1.278A1.778,1.778,0,0,0,35.334-1.7,1.607,1.607,0,0,0,36.552-1.2Zm4.62,3.84V-5.952H42.54l.168.852a2.734,2.734,0,0,1,.762-.7,2.268,2.268,0,0,1,1.23-.3,2.794,2.794,0,0,1,1.5.408,2.923,2.923,0,0,1,1.044,1.116,3.318,3.318,0,0,1,.384,1.608,3.283,3.283,0,0,1-.384,1.6A2.889,2.889,0,0,1,46.2-.258a2.826,2.826,0,0,1-1.5.4,2.6,2.6,0,0,1-1.176-.252,2.12,2.12,0,0,1-.816-.708V2.64Zm3.2-3.84a1.622,1.622,0,0,0,1.212-.492,1.745,1.745,0,0,0,.48-1.272,1.786,1.786,0,0,0-.48-1.284,1.6,1.6,0,0,0-1.212-.5,1.607,1.607,0,0,0-1.218.5,1.778,1.778,0,0,0-.474,1.278A1.778,1.778,0,0,0,43.158-1.7,1.607,1.607,0,0,0,44.376-1.2Z" transform="translate(1125 624)" fill="#fff"/>
    <path id="Path_503" data-name="Path 503" d="M.276,0,3.348-8.4H5.076L8.148,0H6.516L5.844-1.944H2.568L1.884,0ZM2.988-3.144H5.424L4.2-6.636ZM9.192,0V-5.952h1.356l.12,1.008a2.093,2.093,0,0,1,.8-.84A2.352,2.352,0,0,1,12.7-6.1a2.165,2.165,0,0,1,1.716.7,3,3,0,0,1,.612,2.04V0H13.488V-3.216a1.907,1.907,0,0,0-.312-1.176A1.146,1.146,0,0,0,12.2-4.8a1.37,1.37,0,0,0-1.062.456,1.824,1.824,0,0,0-.414,1.272V0Zm9.816-1.776a3.21,3.21,0,0,1-.8-.1l-.444.444a2.122,2.122,0,0,0,.552.18q.348.072,1.128.144a3.114,3.114,0,0,1,1.728.564,1.561,1.561,0,0,1,.54,1.26,1.9,1.9,0,0,1-.288,1,2.063,2.063,0,0,1-.888.768A3.493,3.493,0,0,1,19,2.784a3.916,3.916,0,0,1-2.052-.474,1.556,1.556,0,0,1-.78-1.422A1.713,1.713,0,0,1,16.944-.5a2.635,2.635,0,0,1-.414-.228,2.187,2.187,0,0,1-.306-.252V-1.26l1.044-1.1a2,2,0,0,1-.7-1.572,2.088,2.088,0,0,1,.294-1.092,2.1,2.1,0,0,1,.834-.78A2.747,2.747,0,0,1,19.008-6.1a2.943,2.943,0,0,1,.936.144H22.2v.936l-1.02.072a2.131,2.131,0,0,1,.24,1.008,2.122,2.122,0,0,1-.288,1.092,2.044,2.044,0,0,1-.834.78A2.728,2.728,0,0,1,19.008-1.776Zm0-1.176a1.177,1.177,0,0,0,.774-.252.88.88,0,0,0,.306-.72.88.88,0,0,0-.306-.72,1.177,1.177,0,0,0-.774-.252,1.19,1.19,0,0,0-.792.252.888.888,0,0,0-.3.72.888.888,0,0,0,.3.72A1.19,1.19,0,0,0,19.008-2.952ZM17.568.732a.714.714,0,0,0,.414.666A2.123,2.123,0,0,0,19,1.62a1.691,1.691,0,0,0,.936-.234.719.719,0,0,0,.36-.63.7.7,0,0,0-.234-.54,1.594,1.594,0,0,0-.93-.264q-.492-.036-.912-.108a1.374,1.374,0,0,0-.5.42A.842.842,0,0,0,17.568.732Zm7.98-.588a2.161,2.161,0,0,1-1.722-.7,3.023,3.023,0,0,1-.606-2.04v-3.36h1.524v3.216a1.907,1.907,0,0,0,.312,1.176,1.16,1.16,0,0,0,.984.408,1.356,1.356,0,0,0,1.05-.456A1.824,1.824,0,0,0,27.5-2.88V-5.952H29.04V0H27.684l-.12-1.008a2.093,2.093,0,0,1-.8.84A2.329,2.329,0,0,1,25.548.144ZM30.612,0V-8.64h1.536V0Zm5.16.144A2.816,2.816,0,0,1,34.512-.1a1.7,1.7,0,0,1-.732-.654,1.742,1.742,0,0,1-.24-.9A1.638,1.638,0,0,1,34.188-3a3.081,3.081,0,0,1,1.944-.516h1.512V-3.66a1.1,1.1,0,0,0-.348-.9,1.31,1.31,0,0,0-.864-.288,1.484,1.484,0,0,0-.816.222.956.956,0,0,0-.432.654h-1.5A2.093,2.093,0,0,1,34.122-5.1a2.452,2.452,0,0,1,.978-.738A3.37,3.37,0,0,1,36.444-6.1a2.953,2.953,0,0,1,2,.636,2.257,2.257,0,0,1,.732,1.8V0H37.872l-.144-.96a2.218,2.218,0,0,1-.738.792A2.176,2.176,0,0,1,35.772.144Zm.348-1.2a1.271,1.271,0,0,0,1.026-.432,2.1,2.1,0,0,0,.462-1.068H36.3a1.364,1.364,0,0,0-.876.222.687.687,0,0,0-.264.546.629.629,0,0,0,.264.54A1.157,1.157,0,0,0,36.12-1.056ZM40.644,0V-5.952h1.368l.144,1.116a2.491,2.491,0,0,1,.882-.918A2.464,2.464,0,0,1,44.352-6.1v1.62H43.92a2.44,2.44,0,0,0-.9.156,1.212,1.212,0,0,0-.618.54,2.145,2.145,0,0,0-.222,1.068V0ZM50.3.144A2.816,2.816,0,0,1,49.044-.1a1.7,1.7,0,0,1-.732-.654,1.742,1.742,0,0,1-.24-.9A1.638,1.638,0,0,1,48.72-3a3.081,3.081,0,0,1,1.944-.516h1.512V-3.66a1.1,1.1,0,0,0-.348-.9,1.31,1.31,0,0,0-.864-.288,1.484,1.484,0,0,0-.816.222.956.956,0,0,0-.432.654h-1.5A2.093,2.093,0,0,1,48.654-5.1a2.452,2.452,0,0,1,.978-.738A3.37,3.37,0,0,1,50.976-6.1a2.953,2.953,0,0,1,2,.636,2.257,2.257,0,0,1,.732,1.8V0H52.4L52.26-.96a2.218,2.218,0,0,1-.738.792A2.176,2.176,0,0,1,50.3.144Zm.348-1.2a1.271,1.271,0,0,0,1.026-.432,2.1,2.1,0,0,0,.462-1.068H50.832a1.364,1.364,0,0,0-.876.222.687.687,0,0,0-.264.546.629.629,0,0,0,.264.54A1.157,1.157,0,0,0,50.652-1.056Zm4.524,3.7V-5.952h1.368l.168.852a2.734,2.734,0,0,1,.762-.7,2.268,2.268,0,0,1,1.23-.3,2.794,2.794,0,0,1,1.5.408,2.923,2.923,0,0,1,1.044,1.116,3.318,3.318,0,0,1,.384,1.608,3.283,3.283,0,0,1-.384,1.6A2.889,2.889,0,0,1,60.2-.258a2.826,2.826,0,0,1-1.5.4,2.6,2.6,0,0,1-1.176-.252,2.12,2.12,0,0,1-.816-.708V2.64Zm3.2-3.84a1.622,1.622,0,0,0,1.212-.492,1.745,1.745,0,0,0,.48-1.272,1.786,1.786,0,0,0-.48-1.284,1.6,1.6,0,0,0-1.212-.5,1.607,1.607,0,0,0-1.218.5,1.778,1.778,0,0,0-.474,1.278A1.778,1.778,0,0,0,57.162-1.7,1.607,1.607,0,0,0,58.38-1.2ZM63,2.64V-5.952h1.368l.168.852a2.734,2.734,0,0,1,.762-.7,2.268,2.268,0,0,1,1.23-.3,2.794,2.794,0,0,1,1.5.408,2.923,2.923,0,0,1,1.044,1.116,3.318,3.318,0,0,1,.384,1.608,3.283,3.283,0,0,1-.384,1.6,2.889,2.889,0,0,1-1.044,1.1,2.826,2.826,0,0,1-1.5.4,2.6,2.6,0,0,1-1.176-.252,2.12,2.12,0,0,1-.816-.708V2.64ZM66.2-1.2a1.622,1.622,0,0,0,1.212-.492,1.745,1.745,0,0,0,.48-1.272,1.786,1.786,0,0,0-.48-1.284,1.6,1.6,0,0,0-1.212-.5,1.607,1.607,0,0,0-1.218.5,1.778,1.778,0,0,0-.474,1.278A1.778,1.778,0,0,0,64.986-1.7,1.607,1.607,0,0,0,66.2-1.2Z" transform="translate(1125 567)" fill="#fff"/>
    <g id="Group_287" data-name="Group 287" transform="translate(0 2.001)">
      <g id="file-js-3" data-name="file-js" transform="translate(545.004 181.002)">
        <path id="Path_489-3" data-name="Path 489" d="M-1069-5510a8.008,8.008,0,0,1-8-8v-34a8.009,8.009,0,0,1,8-8h16.1l2,2h0l12.128,12.129,1.776,1.775h0v.094h0v26a8.008,8.008,0,0,1-8,8Zm-6-42v34a6.007,6.007,0,0,0,6,6h24a6.007,6.007,0,0,0,6-6v-26h-8a6.006,6.006,0,0,1-6-6v-8h-16A6.007,6.007,0,0,0-1075-5552Z" transform="translate(1295 5914.998)" fill="url(#linear-gradient)"/>
        <path id="Path_490-3" data-name="Path 490" d="M3.514.168A3.217,3.217,0,0,1,1.225-.637,2.98,2.98,0,0,1,.364-2.926H2.156a1.828,1.828,0,0,0,.322,1.092,1.168,1.168,0,0,0,.994.406,1.105,1.105,0,0,0,.938-.385A1.629,1.629,0,0,0,4.7-2.828V-9.8H6.5v6.972A2.941,2.941,0,0,1,5.691-.609,3,3,0,0,1,3.514.168Zm8.232,0A4.605,4.605,0,0,1,9.842-.2a3.06,3.06,0,0,1-1.3-1.064,2.985,2.985,0,0,1-.49-1.687H9.94a1.672,1.672,0,0,0,.5,1.155,1.75,1.75,0,0,0,1.3.469,1.74,1.74,0,0,0,1.134-.343,1.123,1.123,0,0,0,.42-.917,1.2,1.2,0,0,0-.371-.938,2.8,2.8,0,0,0-.987-.546l-1.316-.448A4.333,4.333,0,0,1,8.883-5.53a2.258,2.258,0,0,1-.6-1.638A2.5,2.5,0,0,1,8.7-8.659,2.812,2.812,0,0,1,9.87-9.625a4.029,4.029,0,0,1,1.708-.343,4.042,4.042,0,0,1,1.729.35,2.833,2.833,0,0,1,1.176.98,2.771,2.771,0,0,1,.455,1.5H13.02a1.338,1.338,0,0,0-.4-.917,1.419,1.419,0,0,0-1.071-.4,1.529,1.529,0,0,0-.987.287,1.029,1.029,0,0,0-.4.875,1.011,1.011,0,0,0,.308.777,2.473,2.473,0,0,0,.84.483q.532.2,1.218.42a8.284,8.284,0,0,1,1.33.588,2.726,2.726,0,0,1,.966.889,2.539,2.539,0,0,1,.364,1.421A2.74,2.74,0,0,1,14.8-1.288,2.819,2.819,0,0,1,13.636-.231,4.072,4.072,0,0,1,11.746.168Z" transform="translate(224 398)" fill="#fff"/>
      </g>
      <path id="Path_498" data-name="Path 498" d="M.276,0,3.348-8.4H5.076L8.148,0H6.516L5.844-1.944H2.568L1.884,0ZM2.988-3.144H5.424L4.2-6.636ZM11.256,0a2.314,2.314,0,0,1-1.5-.456,1.983,1.983,0,0,1-.564-1.62V-4.668H8.172V-5.952h1.02l.18-1.6h1.356v1.6h1.608v1.284H10.728v2.6a.764.764,0,0,0,.186.594.984.984,0,0,0,.642.162H12.3V0Zm5.1.144a3.065,3.065,0,0,1-1.554-.4,2.907,2.907,0,0,1-1.092-1.1,3.214,3.214,0,0,1-.4-1.626A3.177,3.177,0,0,1,13.716-4.6a2.952,2.952,0,0,1,1.1-1.1,3.065,3.065,0,0,1,1.554-.4,3.042,3.042,0,0,1,1.542.4A2.907,2.907,0,0,1,19-4.6a3.214,3.214,0,0,1,.4,1.626A3.214,3.214,0,0,1,19-1.35a2.9,2.9,0,0,1-1.1,1.1A3.075,3.075,0,0,1,16.356.144Zm0-1.332a1.42,1.42,0,0,0,1.044-.45,1.831,1.831,0,0,0,.444-1.338A1.831,1.831,0,0,0,17.4-4.314a1.406,1.406,0,0,0-1.032-.45,1.413,1.413,0,0,0-1.05.45,1.846,1.846,0,0,0-.438,1.338,1.846,1.846,0,0,0,.438,1.338A1.4,1.4,0,0,0,16.356-1.188ZM20.772,0V-5.952h1.356l.132.8a2.113,2.113,0,0,1,.762-.69,2.261,2.261,0,0,1,1.1-.258,2.04,2.04,0,0,1,1.956,1.068,2.312,2.312,0,0,1,.87-.78A2.52,2.52,0,0,1,28.14-6.1a2.277,2.277,0,0,1,1.788.7,2.964,2.964,0,0,1,.624,2.04V0H29.016V-3.216a1.994,1.994,0,0,0-.294-1.176,1.042,1.042,0,0,0-.906-.408,1.237,1.237,0,0,0-1,.456,1.938,1.938,0,0,0-.378,1.272V0H24.9V-3.216a1.964,1.964,0,0,0-.3-1.176,1.071,1.071,0,0,0-.924-.408,1.224,1.224,0,0,0-.99.456,1.938,1.938,0,0,0-.378,1.272V0ZM32.844-6.876a.971.971,0,0,1-.69-.252.833.833,0,0,1-.27-.636.814.814,0,0,1,.27-.63.985.985,0,0,1,.69-.246.985.985,0,0,1,.69.246.814.814,0,0,1,.27.63.833.833,0,0,1-.27.636A.971.971,0,0,1,32.844-6.876ZM32.076,0V-5.952h1.536V0Zm6.06.144a3.2,3.2,0,0,1-1.608-.4,2.883,2.883,0,0,1-1.1-1.1,3.223,3.223,0,0,1-.4-1.62,3.223,3.223,0,0,1,.4-1.62,2.883,2.883,0,0,1,1.1-1.1,3.2,3.2,0,0,1,1.608-.4,3.076,3.076,0,0,1,1.92.594,2.656,2.656,0,0,1,1,1.638h-1.62a1.184,1.184,0,0,0-.474-.678,1.425,1.425,0,0,0-.834-.246,1.416,1.416,0,0,0-1.08.48A1.887,1.887,0,0,0,36.6-2.976a1.887,1.887,0,0,0,.444,1.332,1.416,1.416,0,0,0,1.08.48,1.45,1.45,0,0,0,.834-.24,1.16,1.16,0,0,0,.474-.684h1.62a2.714,2.714,0,0,1-1,1.62A3.015,3.015,0,0,1,38.136.144Zm7.14,0a3.065,3.065,0,0,1-1.554-.4,2.907,2.907,0,0,1-1.092-1.1,3.214,3.214,0,0,1-.4-1.626A3.177,3.177,0,0,1,42.636-4.6a2.952,2.952,0,0,1,1.1-1.1,3.065,3.065,0,0,1,1.554-.4,3.042,3.042,0,0,1,1.542.4,2.907,2.907,0,0,1,1.092,1.1,3.214,3.214,0,0,1,.4,1.626,3.214,3.214,0,0,1-.4,1.626,2.9,2.9,0,0,1-1.1,1.1A3.075,3.075,0,0,1,45.276.144Zm0-1.332a1.42,1.42,0,0,0,1.044-.45,1.831,1.831,0,0,0,.444-1.338,1.831,1.831,0,0,0-.444-1.338,1.406,1.406,0,0,0-1.032-.45,1.413,1.413,0,0,0-1.05.45A1.846,1.846,0,0,0,43.8-2.976a1.846,1.846,0,0,0,.438,1.338A1.4,1.4,0,0,0,45.276-1.188ZM3.7,14.144a3.2,3.2,0,0,1-1.608-.4,2.883,2.883,0,0,1-1.1-1.1,3.223,3.223,0,0,1-.4-1.62A3.223,3.223,0,0,1,.99,9.4a2.883,2.883,0,0,1,1.1-1.1A3.2,3.2,0,0,1,3.7,7.9a3.076,3.076,0,0,1,1.92.594,2.656,2.656,0,0,1,1,1.638H4.992a1.184,1.184,0,0,0-.474-.678,1.425,1.425,0,0,0-.834-.246,1.416,1.416,0,0,0-1.08.48,1.887,1.887,0,0,0-.444,1.332A1.887,1.887,0,0,0,2.6,12.356a1.416,1.416,0,0,0,1.08.48,1.45,1.45,0,0,0,.834-.24,1.16,1.16,0,0,0,.474-.684h1.62a2.714,2.714,0,0,1-1,1.62A3.015,3.015,0,0,1,3.7,14.144Zm7.14,0a3.065,3.065,0,0,1-1.554-.4,2.907,2.907,0,0,1-1.092-1.1,3.214,3.214,0,0,1-.4-1.626A3.177,3.177,0,0,1,8.2,9.4a2.952,2.952,0,0,1,1.1-1.1,3.224,3.224,0,0,1,3.1,0,2.907,2.907,0,0,1,1.092,1.1,3.214,3.214,0,0,1,.4,1.626,3.214,3.214,0,0,1-.4,1.626,2.9,2.9,0,0,1-1.1,1.1A3.075,3.075,0,0,1,10.836,14.144Zm0-1.332a1.42,1.42,0,0,0,1.044-.45,1.831,1.831,0,0,0,.444-1.338,1.831,1.831,0,0,0-.444-1.338,1.429,1.429,0,0,0-2.082,0,1.846,1.846,0,0,0-.438,1.338A1.846,1.846,0,0,0,9.8,12.362,1.4,1.4,0,0,0,10.836,12.812ZM15.252,14V8.048h1.356l.132.8a2.113,2.113,0,0,1,.762-.69A2.261,2.261,0,0,1,18.6,7.9a2.04,2.04,0,0,1,1.956,1.068,2.312,2.312,0,0,1,.87-.78A2.52,2.52,0,0,1,22.62,7.9a2.277,2.277,0,0,1,1.788.7,2.964,2.964,0,0,1,.624,2.04V14H23.5V10.784A1.994,1.994,0,0,0,23.2,9.608,1.042,1.042,0,0,0,22.3,9.2a1.237,1.237,0,0,0-1,.456,1.938,1.938,0,0,0-.378,1.272V14H19.38V10.784a1.964,1.964,0,0,0-.3-1.176,1.071,1.071,0,0,0-.924-.408,1.224,1.224,0,0,0-.99.456,1.938,1.938,0,0,0-.378,1.272V14ZM26.5,16.64V8.048h1.368l.168.852a2.734,2.734,0,0,1,.762-.7,2.268,2.268,0,0,1,1.23-.3,2.794,2.794,0,0,1,1.5.408,2.923,2.923,0,0,1,1.044,1.116,3.318,3.318,0,0,1,.384,1.608,3.283,3.283,0,0,1-.384,1.6,2.889,2.889,0,0,1-1.044,1.1,2.826,2.826,0,0,1-1.5.4,2.6,2.6,0,0,1-1.176-.252,2.12,2.12,0,0,1-.816-.708V16.64Zm3.2-3.84a1.622,1.622,0,0,0,1.212-.492,1.745,1.745,0,0,0,.48-1.272,1.786,1.786,0,0,0-.48-1.284,1.724,1.724,0,0,0-2.43-.006,1.778,1.778,0,0,0-.474,1.278,1.778,1.778,0,0,0,.474,1.278A1.607,1.607,0,0,0,29.7,12.8Zm7.476,1.344a3.065,3.065,0,0,1-1.554-.4,2.907,2.907,0,0,1-1.092-1.1,3.214,3.214,0,0,1-.4-1.626A3.177,3.177,0,0,1,34.536,9.4a2.951,2.951,0,0,1,1.1-1.1,3.224,3.224,0,0,1,3.1,0,2.907,2.907,0,0,1,1.092,1.1,3.214,3.214,0,0,1,.4,1.626,3.214,3.214,0,0,1-.4,1.626,2.9,2.9,0,0,1-1.1,1.1A3.075,3.075,0,0,1,37.176,14.144Zm0-1.332a1.42,1.42,0,0,0,1.044-.45,1.831,1.831,0,0,0,.444-1.338,1.831,1.831,0,0,0-.444-1.338,1.429,1.429,0,0,0-2.082,0,1.846,1.846,0,0,0-.438,1.338,1.846,1.846,0,0,0,.438,1.338A1.4,1.4,0,0,0,37.176,12.812ZM41.592,14V8.048h1.356l.12,1.008a2.093,2.093,0,0,1,.8-.84A2.352,2.352,0,0,1,45.1,7.9a2.165,2.165,0,0,1,1.716.7,3,3,0,0,1,.612,2.04V14H45.888V10.784a1.907,1.907,0,0,0-.312-1.176A1.146,1.146,0,0,0,44.6,9.2a1.37,1.37,0,0,0-1.062.456,1.824,1.824,0,0,0-.414,1.272V14Zm10.188.144a3.249,3.249,0,0,1-1.6-.384,2.779,2.779,0,0,1-1.092-1.08,3.2,3.2,0,0,1-.4-1.608,3.4,3.4,0,0,1,.39-1.644,2.831,2.831,0,0,1,1.08-1.122,3.173,3.173,0,0,1,1.626-.4,3.065,3.065,0,0,1,1.548.384,2.758,2.758,0,0,1,1.05,1.05,2.949,2.949,0,0,1,.378,1.482q0,.132-.006.276t-.018.3H50.22a1.55,1.55,0,0,0,.486,1.092,1.527,1.527,0,0,0,1.062.4,1.4,1.4,0,0,0,.786-.21,1.3,1.3,0,0,0,.474-.546h1.56a2.828,2.828,0,0,1-.558,1.026,2.751,2.751,0,0,1-.96.726A3.035,3.035,0,0,1,51.78,14.144Zm.012-4.992a1.636,1.636,0,0,0-1,.318,1.474,1.474,0,0,0-.552.966h2.964a1.3,1.3,0,0,0-.432-.936A1.437,1.437,0,0,0,51.792,9.152ZM56.064,14V8.048H57.42l.12,1.008a2.093,2.093,0,0,1,.8-.84,2.352,2.352,0,0,1,1.23-.312,2.165,2.165,0,0,1,1.716.7,3,3,0,0,1,.612,2.04V14H60.36V10.784a1.907,1.907,0,0,0-.312-1.176,1.146,1.146,0,0,0-.972-.408,1.37,1.37,0,0,0-1.062.456,1.824,1.824,0,0,0-.414,1.272V14Zm9.948,0a2.314,2.314,0,0,1-1.5-.456,1.983,1.983,0,0,1-.564-1.62V9.332h-1.02V8.048h1.02l.18-1.6h1.356v1.6h1.608V9.332H65.484v2.6a.764.764,0,0,0,.186.594.984.984,0,0,0,.642.162h.744V14Z" transform="translate(814 557.999)" fill="#fff"/>
    </g>
    <path id="Path_500" data-name="Path 500" d="M5.316,2.544a5.042,5.042,0,0,1-2.328-.51A3.74,3.74,0,0,1,1.44.594a4.235,4.235,0,0,1-.552-2.2A6.446,6.446,0,0,1,1.356-4.08,6,6,0,0,1,2.67-6.066,6,6,0,0,1,4.656-7.38a6.51,6.51,0,0,1,2.5-.468,5.194,5.194,0,0,1,2.406.522,3.782,3.782,0,0,1,1.566,1.458,4.172,4.172,0,0,1,.552,2.16,5.26,5.26,0,0,1-.186,1.4A4.175,4.175,0,0,1,10.95-1.1a2.717,2.717,0,0,1-.876.846A2.282,2.282,0,0,1,8.88.06a1.634,1.634,0,0,1-1-.276,1.2,1.2,0,0,1-.468-.756A2.461,2.461,0,0,1,6.522-.2a2.513,2.513,0,0,1-1.17.282A1.831,1.831,0,0,1,3.936-.462a2.1,2.1,0,0,1-.5-1.482,3.9,3.9,0,0,1,.2-1.254,3.514,3.514,0,0,1,.582-1.08,2.84,2.84,0,0,1,.9-.75A2.414,2.414,0,0,1,6.264-5.3a1.413,1.413,0,0,1,1.464.852L7.86-5.2H9.12L8.556-1.98a1.555,1.555,0,0,0,.03.75q.1.282.51.282A.85.85,0,0,0,9.7-1.194a1.953,1.953,0,0,0,.432-.648,4.146,4.146,0,0,0,.264-.876,4.979,4.979,0,0,0,.09-.93,2.976,2.976,0,0,0-.924-2.31A3.662,3.662,0,0,0,7-6.8a4.854,4.854,0,0,0-1.962.39,4.784,4.784,0,0,0-1.56,1.086A4.975,4.975,0,0,0,2.442-3.714,5.281,5.281,0,0,0,2.076-1.74,3.088,3.088,0,0,0,2.988.642a3.563,3.563,0,0,0,2.52.846A5.4,5.4,0,0,0,6.582,1.38a4.446,4.446,0,0,0,.978-.312l.252,1A6.311,6.311,0,0,1,5.316,2.544Zm.516-3.588a1.4,1.4,0,0,0,.792-.24,1.829,1.829,0,0,0,.588-.654,2.1,2.1,0,0,0,.252-.93A1.418,1.418,0,0,0,7.23-3.8a.963.963,0,0,0-.846-.384,1.305,1.305,0,0,0-.84.288,1.967,1.967,0,0,0-.564.738,2.312,2.312,0,0,0-.2.966,1.244,1.244,0,0,0,.27.834A.974.974,0,0,0,5.832-1.044ZM15.4.144A2.816,2.816,0,0,1,14.136-.1,1.7,1.7,0,0,1,13.4-.756a1.742,1.742,0,0,1-.24-.9A1.638,1.638,0,0,1,13.812-3a3.082,3.082,0,0,1,1.944-.516h1.512V-3.66a1.1,1.1,0,0,0-.348-.9,1.31,1.31,0,0,0-.864-.288,1.484,1.484,0,0,0-.816.222.956.956,0,0,0-.432.654h-1.5A2.093,2.093,0,0,1,13.746-5.1a2.452,2.452,0,0,1,.978-.738A3.37,3.37,0,0,1,16.068-6.1a2.953,2.953,0,0,1,2,.636,2.257,2.257,0,0,1,.732,1.8V0H17.5l-.144-.96a2.218,2.218,0,0,1-.738.792A2.176,2.176,0,0,1,15.4.144Zm.348-1.2a1.271,1.271,0,0,0,1.026-.432,2.1,2.1,0,0,0,.462-1.068H15.924a1.364,1.364,0,0,0-.876.222.687.687,0,0,0-.264.546.629.629,0,0,0,.264.54A1.157,1.157,0,0,0,15.744-1.056ZM22.836,0a2.314,2.314,0,0,1-1.5-.456,1.983,1.983,0,0,1-.564-1.62V-4.668h-1.02V-5.952h1.02l.18-1.6h1.356v1.6h1.608v1.284H22.308v2.6a.764.764,0,0,0,.186.594.984.984,0,0,0,.642.162h.744V0Zm5.1.144a3.065,3.065,0,0,1-1.554-.4,2.907,2.907,0,0,1-1.092-1.1,3.214,3.214,0,0,1-.4-1.626A3.177,3.177,0,0,1,25.3-4.6a2.952,2.952,0,0,1,1.1-1.1,3.065,3.065,0,0,1,1.554-.4,3.042,3.042,0,0,1,1.542.4,2.907,2.907,0,0,1,1.092,1.1,3.214,3.214,0,0,1,.4,1.626,3.214,3.214,0,0,1-.4,1.626,2.9,2.9,0,0,1-1.1,1.1A3.075,3.075,0,0,1,27.936.144Zm0-1.332a1.42,1.42,0,0,0,1.044-.45,1.831,1.831,0,0,0,.444-1.338,1.831,1.831,0,0,0-.444-1.338,1.406,1.406,0,0,0-1.032-.45,1.413,1.413,0,0,0-1.05.45,1.846,1.846,0,0,0-.438,1.338A1.846,1.846,0,0,0,26.9-1.638,1.4,1.4,0,0,0,27.936-1.188ZM32.352,0V-5.952h1.356l.132.8a2.113,2.113,0,0,1,.762-.69A2.261,2.261,0,0,1,35.7-6.1a2.04,2.04,0,0,1,1.956,1.068,2.312,2.312,0,0,1,.87-.78A2.52,2.52,0,0,1,39.72-6.1a2.277,2.277,0,0,1,1.788.7,2.964,2.964,0,0,1,.624,2.04V0H40.6V-3.216A1.994,1.994,0,0,0,40.3-4.392,1.042,1.042,0,0,0,39.4-4.8a1.237,1.237,0,0,0-1,.456,1.938,1.938,0,0,0-.378,1.272V0H36.48V-3.216a1.964,1.964,0,0,0-.3-1.176,1.071,1.071,0,0,0-.924-.408,1.224,1.224,0,0,0-.99.456,1.938,1.938,0,0,0-.378,1.272V0ZM44.424-6.876a.971.971,0,0,1-.69-.252.833.833,0,0,1-.27-.636.814.814,0,0,1,.27-.63.985.985,0,0,1,.69-.246.985.985,0,0,1,.69.246.814.814,0,0,1,.27.63.833.833,0,0,1-.27.636A.971.971,0,0,1,44.424-6.876ZM43.656,0V-5.952h1.536V0Zm6.06.144a3.2,3.2,0,0,1-1.608-.4,2.883,2.883,0,0,1-1.1-1.1,3.223,3.223,0,0,1-.4-1.62,3.223,3.223,0,0,1,.4-1.62,2.883,2.883,0,0,1,1.1-1.1,3.2,3.2,0,0,1,1.608-.4,3.076,3.076,0,0,1,1.92.594,2.656,2.656,0,0,1,1,1.638h-1.62a1.184,1.184,0,0,0-.474-.678,1.425,1.425,0,0,0-.834-.246,1.416,1.416,0,0,0-1.08.48,1.887,1.887,0,0,0-.444,1.332,1.887,1.887,0,0,0,.444,1.332,1.416,1.416,0,0,0,1.08.48,1.45,1.45,0,0,0,.834-.24,1.16,1.16,0,0,0,.474-.684h1.62a2.714,2.714,0,0,1-1,1.62A3.015,3.015,0,0,1,49.716.144Zm7.14,0a3.065,3.065,0,0,1-1.554-.4,2.907,2.907,0,0,1-1.092-1.1,3.214,3.214,0,0,1-.4-1.626A3.177,3.177,0,0,1,54.216-4.6a2.952,2.952,0,0,1,1.1-1.1,3.065,3.065,0,0,1,1.554-.4,3.042,3.042,0,0,1,1.542.4A2.907,2.907,0,0,1,59.5-4.6a3.214,3.214,0,0,1,.4,1.626,3.214,3.214,0,0,1-.4,1.626,2.9,2.9,0,0,1-1.1,1.1A3.075,3.075,0,0,1,56.856.144Zm0-1.332a1.42,1.42,0,0,0,1.044-.45,1.831,1.831,0,0,0,.444-1.338A1.831,1.831,0,0,0,57.9-4.314a1.406,1.406,0,0,0-1.032-.45,1.413,1.413,0,0,0-1.05.45,1.846,1.846,0,0,0-.438,1.338,1.846,1.846,0,0,0,.438,1.338A1.4,1.4,0,0,0,56.856-1.188Zm3.72,2.52,3-10.656h1.5L62.064,1.332ZM65.9,0V-5.952h1.368l.144,1.116a2.49,2.49,0,0,1,.882-.918A2.464,2.464,0,0,1,69.612-6.1v1.62H69.18a2.44,2.44,0,0,0-.9.156,1.212,1.212,0,0,0-.618.54,2.145,2.145,0,0,0-.222,1.068V0ZM73.44.144a3.249,3.249,0,0,1-1.6-.384,2.779,2.779,0,0,1-1.092-1.08,3.2,3.2,0,0,1-.4-1.608,3.4,3.4,0,0,1,.39-1.644,2.832,2.832,0,0,1,1.08-1.122,3.173,3.173,0,0,1,1.626-.4A3.065,3.065,0,0,1,75-5.712a2.758,2.758,0,0,1,1.05,1.05,2.949,2.949,0,0,1,.378,1.482q0,.132-.006.276t-.018.3H71.88a1.55,1.55,0,0,0,.486,1.092,1.527,1.527,0,0,0,1.062.4,1.4,1.4,0,0,0,.786-.21,1.3,1.3,0,0,0,.474-.546h1.56A2.828,2.828,0,0,1,75.69-.846a2.751,2.751,0,0,1-.96.726A3.035,3.035,0,0,1,73.44.144Zm.012-4.992a1.636,1.636,0,0,0-1,.318,1.474,1.474,0,0,0-.552.966h2.964a1.3,1.3,0,0,0-.432-.936A1.437,1.437,0,0,0,73.452-4.848ZM79.776.144A2.816,2.816,0,0,1,78.516-.1a1.7,1.7,0,0,1-.732-.654,1.743,1.743,0,0,1-.24-.9A1.638,1.638,0,0,1,78.192-3a3.082,3.082,0,0,1,1.944-.516h1.512V-3.66a1.1,1.1,0,0,0-.348-.9,1.31,1.31,0,0,0-.864-.288,1.484,1.484,0,0,0-.816.222.956.956,0,0,0-.432.654h-1.5A2.093,2.093,0,0,1,78.126-5.1a2.452,2.452,0,0,1,.978-.738A3.37,3.37,0,0,1,80.448-6.1a2.953,2.953,0,0,1,2,.636,2.257,2.257,0,0,1,.732,1.8V0H81.876l-.144-.96a2.218,2.218,0,0,1-.738.792A2.176,2.176,0,0,1,79.776.144Zm.348-1.2a1.271,1.271,0,0,0,1.026-.432,2.1,2.1,0,0,0,.462-1.068H80.3a1.364,1.364,0,0,0-.876.222.687.687,0,0,0-.264.546.629.629,0,0,0,.264.54A1.157,1.157,0,0,0,80.124-1.056Zm7.44,1.2a3.2,3.2,0,0,1-1.608-.4,2.883,2.883,0,0,1-1.1-1.1,3.223,3.223,0,0,1-.4-1.62,3.223,3.223,0,0,1,.4-1.62,2.883,2.883,0,0,1,1.1-1.1,3.2,3.2,0,0,1,1.608-.4,3.076,3.076,0,0,1,1.92.594,2.656,2.656,0,0,1,1,1.638H88.86a1.184,1.184,0,0,0-.474-.678,1.425,1.425,0,0,0-.834-.246,1.416,1.416,0,0,0-1.08.48,1.887,1.887,0,0,0-.444,1.332,1.887,1.887,0,0,0,.444,1.332,1.416,1.416,0,0,0,1.08.48,1.45,1.45,0,0,0,.834-.24,1.16,1.16,0,0,0,.474-.684h1.62a2.714,2.714,0,0,1-1,1.62A3.015,3.015,0,0,1,87.564.144ZM94.416,0a2.314,2.314,0,0,1-1.5-.456,1.983,1.983,0,0,1-.564-1.62V-4.668h-1.02V-5.952h1.02l.18-1.6h1.356v1.6H95.5v1.284H93.888v2.6a.764.764,0,0,0,.186.594.984.984,0,0,0,.642.162h.744V0Z" transform="translate(975 510)" fill="#fff"/>
    <path id="Path_501" data-name="Path 501" d="M5.316,2.544a5.042,5.042,0,0,1-2.328-.51A3.74,3.74,0,0,1,1.44.594a4.235,4.235,0,0,1-.552-2.2A6.446,6.446,0,0,1,1.356-4.08,6,6,0,0,1,2.67-6.066,6,6,0,0,1,4.656-7.38a6.51,6.51,0,0,1,2.5-.468,5.194,5.194,0,0,1,2.406.522,3.782,3.782,0,0,1,1.566,1.458,4.172,4.172,0,0,1,.552,2.16,5.26,5.26,0,0,1-.186,1.4A4.175,4.175,0,0,1,10.95-1.1a2.717,2.717,0,0,1-.876.846A2.282,2.282,0,0,1,8.88.06a1.634,1.634,0,0,1-1-.276,1.2,1.2,0,0,1-.468-.756A2.461,2.461,0,0,1,6.522-.2a2.513,2.513,0,0,1-1.17.282A1.831,1.831,0,0,1,3.936-.462a2.1,2.1,0,0,1-.5-1.482,3.9,3.9,0,0,1,.2-1.254,3.514,3.514,0,0,1,.582-1.08,2.84,2.84,0,0,1,.9-.75A2.414,2.414,0,0,1,6.264-5.3a1.413,1.413,0,0,1,1.464.852L7.86-5.2H9.12L8.556-1.98a1.555,1.555,0,0,0,.03.75q.1.282.51.282A.85.85,0,0,0,9.7-1.194a1.953,1.953,0,0,0,.432-.648,4.146,4.146,0,0,0,.264-.876,4.979,4.979,0,0,0,.09-.93,2.976,2.976,0,0,0-.924-2.31A3.662,3.662,0,0,0,7-6.8a4.854,4.854,0,0,0-1.962.39,4.784,4.784,0,0,0-1.56,1.086A4.975,4.975,0,0,0,2.442-3.714,5.281,5.281,0,0,0,2.076-1.74,3.088,3.088,0,0,0,2.988.642a3.563,3.563,0,0,0,2.52.846A5.4,5.4,0,0,0,6.582,1.38a4.446,4.446,0,0,0,.978-.312l.252,1A6.311,6.311,0,0,1,5.316,2.544Zm.516-3.588a1.4,1.4,0,0,0,.792-.24,1.829,1.829,0,0,0,.588-.654,2.1,2.1,0,0,0,.252-.93A1.418,1.418,0,0,0,7.23-3.8a.963.963,0,0,0-.846-.384,1.305,1.305,0,0,0-.84.288,1.967,1.967,0,0,0-.564.738,2.312,2.312,0,0,0-.2.966,1.244,1.244,0,0,0,.27.834A.974.974,0,0,0,5.832-1.044ZM15.4.144A2.816,2.816,0,0,1,14.136-.1,1.7,1.7,0,0,1,13.4-.756a1.742,1.742,0,0,1-.24-.9A1.638,1.638,0,0,1,13.812-3a3.082,3.082,0,0,1,1.944-.516h1.512V-3.66a1.1,1.1,0,0,0-.348-.9,1.31,1.31,0,0,0-.864-.288,1.484,1.484,0,0,0-.816.222.956.956,0,0,0-.432.654h-1.5A2.093,2.093,0,0,1,13.746-5.1a2.452,2.452,0,0,1,.978-.738A3.37,3.37,0,0,1,16.068-6.1a2.953,2.953,0,0,1,2,.636,2.257,2.257,0,0,1,.732,1.8V0H17.5l-.144-.96a2.218,2.218,0,0,1-.738.792A2.176,2.176,0,0,1,15.4.144Zm.348-1.2a1.271,1.271,0,0,0,1.026-.432,2.1,2.1,0,0,0,.462-1.068H15.924a1.364,1.364,0,0,0-.876.222.687.687,0,0,0-.264.546.629.629,0,0,0,.264.54A1.157,1.157,0,0,0,15.744-1.056ZM22.836,0a2.314,2.314,0,0,1-1.5-.456,1.983,1.983,0,0,1-.564-1.62V-4.668h-1.02V-5.952h1.02l.18-1.6h1.356v1.6h1.608v1.284H22.308v2.6a.764.764,0,0,0,.186.594.984.984,0,0,0,.642.162h.744V0Zm5.1.144a3.065,3.065,0,0,1-1.554-.4,2.907,2.907,0,0,1-1.092-1.1,3.214,3.214,0,0,1-.4-1.626A3.177,3.177,0,0,1,25.3-4.6a2.952,2.952,0,0,1,1.1-1.1,3.065,3.065,0,0,1,1.554-.4,3.042,3.042,0,0,1,1.542.4,2.907,2.907,0,0,1,1.092,1.1,3.214,3.214,0,0,1,.4,1.626,3.214,3.214,0,0,1-.4,1.626,2.9,2.9,0,0,1-1.1,1.1A3.075,3.075,0,0,1,27.936.144Zm0-1.332a1.42,1.42,0,0,0,1.044-.45,1.831,1.831,0,0,0,.444-1.338,1.831,1.831,0,0,0-.444-1.338,1.406,1.406,0,0,0-1.032-.45,1.413,1.413,0,0,0-1.05.45,1.846,1.846,0,0,0-.438,1.338A1.846,1.846,0,0,0,26.9-1.638,1.4,1.4,0,0,0,27.936-1.188ZM32.352,0V-5.952h1.356l.132.8a2.113,2.113,0,0,1,.762-.69A2.261,2.261,0,0,1,35.7-6.1a2.04,2.04,0,0,1,1.956,1.068,2.312,2.312,0,0,1,.87-.78A2.52,2.52,0,0,1,39.72-6.1a2.277,2.277,0,0,1,1.788.7,2.964,2.964,0,0,1,.624,2.04V0H40.6V-3.216A1.994,1.994,0,0,0,40.3-4.392,1.042,1.042,0,0,0,39.4-4.8a1.237,1.237,0,0,0-1,.456,1.938,1.938,0,0,0-.378,1.272V0H36.48V-3.216a1.964,1.964,0,0,0-.3-1.176,1.071,1.071,0,0,0-.924-.408,1.224,1.224,0,0,0-.99.456,1.938,1.938,0,0,0-.378,1.272V0ZM44.424-6.876a.971.971,0,0,1-.69-.252.833.833,0,0,1-.27-.636.814.814,0,0,1,.27-.63.985.985,0,0,1,.69-.246.985.985,0,0,1,.69.246.814.814,0,0,1,.27.63.833.833,0,0,1-.27.636A.971.971,0,0,1,44.424-6.876ZM43.656,0V-5.952h1.536V0Zm6.06.144a3.2,3.2,0,0,1-1.608-.4,2.883,2.883,0,0,1-1.1-1.1,3.223,3.223,0,0,1-.4-1.62,3.223,3.223,0,0,1,.4-1.62,2.883,2.883,0,0,1,1.1-1.1,3.2,3.2,0,0,1,1.608-.4,3.076,3.076,0,0,1,1.92.594,2.656,2.656,0,0,1,1,1.638h-1.62a1.184,1.184,0,0,0-.474-.678,1.425,1.425,0,0,0-.834-.246,1.416,1.416,0,0,0-1.08.48,1.887,1.887,0,0,0-.444,1.332,1.887,1.887,0,0,0,.444,1.332,1.416,1.416,0,0,0,1.08.48,1.45,1.45,0,0,0,.834-.24,1.16,1.16,0,0,0,.474-.684h1.62a2.714,2.714,0,0,1-1,1.62A3.015,3.015,0,0,1,49.716.144Zm7.14,0a3.065,3.065,0,0,1-1.554-.4,2.907,2.907,0,0,1-1.092-1.1,3.214,3.214,0,0,1-.4-1.626A3.177,3.177,0,0,1,54.216-4.6a2.952,2.952,0,0,1,1.1-1.1,3.065,3.065,0,0,1,1.554-.4,3.042,3.042,0,0,1,1.542.4A2.907,2.907,0,0,1,59.5-4.6a3.214,3.214,0,0,1,.4,1.626,3.214,3.214,0,0,1-.4,1.626,2.9,2.9,0,0,1-1.1,1.1A3.075,3.075,0,0,1,56.856.144Zm0-1.332a1.42,1.42,0,0,0,1.044-.45,1.831,1.831,0,0,0,.444-1.338A1.831,1.831,0,0,0,57.9-4.314a1.406,1.406,0,0,0-1.032-.45,1.413,1.413,0,0,0-1.05.45,1.846,1.846,0,0,0-.438,1.338,1.846,1.846,0,0,0,.438,1.338A1.4,1.4,0,0,0,56.856-1.188Zm3.72,2.52,3-10.656h1.5L62.064,1.332ZM67.74,0,65.556-5.952h1.608l1.512,4.5,1.512-4.5H71.8L69.6,0ZM75,.144a2.161,2.161,0,0,1-1.722-.7,3.023,3.023,0,0,1-.606-2.04v-3.36H74.2v3.216a1.907,1.907,0,0,0,.312,1.176,1.16,1.16,0,0,0,.984.408,1.356,1.356,0,0,0,1.05-.456,1.824,1.824,0,0,0,.414-1.272V-5.952h1.536V0H77.136l-.12-1.008a2.093,2.093,0,0,1-.8.84A2.329,2.329,0,0,1,75,.144Zm7.956,0a3.249,3.249,0,0,1-1.6-.384,2.779,2.779,0,0,1-1.092-1.08,3.2,3.2,0,0,1-.4-1.608,3.4,3.4,0,0,1,.39-1.644,2.832,2.832,0,0,1,1.08-1.122,3.173,3.173,0,0,1,1.626-.4,3.065,3.065,0,0,1,1.548.384,2.758,2.758,0,0,1,1.05,1.05,2.949,2.949,0,0,1,.378,1.482q0,.132-.006.276t-.018.3H81.4a1.55,1.55,0,0,0,.486,1.092,1.527,1.527,0,0,0,1.062.4,1.4,1.4,0,0,0,.786-.21,1.3,1.3,0,0,0,.474-.546h1.56a2.828,2.828,0,0,1-.558,1.026,2.751,2.751,0,0,1-.96.726A3.035,3.035,0,0,1,82.956.144Zm.012-4.992a1.636,1.636,0,0,0-1,.318,1.474,1.474,0,0,0-.552.966h2.964a1.3,1.3,0,0,0-.432-.936A1.437,1.437,0,0,0,82.968-4.848Z" transform="translate(975 624)" fill="#fff"/>
    <g id="Rectangle_287" data-name="Rectangle 287" transform="translate(905 471)" fill="none" stroke="#fff" stroke-linecap="round" stroke-width="1" stroke-dasharray="0 4">
      <rect width="60" height="184" rx="16" stroke="none"/>
      <rect x="0.5" y="0.5" width="59" height="183" rx="15.5" fill="none"/>
    </g>
    <path id="Path_499" data-name="Path 499" d="M1.992,0,.24-5.952H1.512L2.664-1.464l1.3-4.488H5.376l1.3,4.488L7.824-5.952H9.1L7.344,0H6.036L4.668-4.68,3.3,0ZM10.14,0V-5.952h1.14l.108,1.128a2.376,2.376,0,0,1,.87-.93,2.535,2.535,0,0,1,1.35-.342v1.332H13.26a2.412,2.412,0,0,0-.942.174,1.379,1.379,0,0,0-.66.588,2.248,2.248,0,0,0-.246,1.146V0Zm6.576.144a2.728,2.728,0,0,1-1.248-.252,1.726,1.726,0,0,1-.732-.666,1.775,1.775,0,0,1-.24-.906,1.62,1.62,0,0,1,.672-1.368,3.154,3.154,0,0,1,1.92-.5h1.56V-3.66A1.35,1.35,0,0,0,18.27-4.7a1.387,1.387,0,0,0-.978-.348,1.625,1.625,0,0,0-.918.258,1.081,1.081,0,0,0-.474.762H14.628a2,2,0,0,1,.438-1.11,2.449,2.449,0,0,1,.96-.708A3.25,3.25,0,0,1,17.3-6.1a2.684,2.684,0,0,1,1.932.654A2.349,2.349,0,0,1,19.92-3.66V0h-1.1l-.108-1.02a2.261,2.261,0,0,1-.732.828A2.153,2.153,0,0,1,16.716.144Zm.252-1.032a1.487,1.487,0,0,0,.87-.246,1.665,1.665,0,0,0,.552-.654,2.628,2.628,0,0,0,.246-.9H17.22a1.7,1.7,0,0,0-1.074.264.823.823,0,0,0-.318.66.764.764,0,0,0,.306.642A1.341,1.341,0,0,0,16.968-.888Zm4.44,3.528V-5.952h1.14l.132.924a2.733,2.733,0,0,1,.792-.744,2.358,2.358,0,0,1,1.3-.324,2.839,2.839,0,0,1,1.524.408A2.878,2.878,0,0,1,27.33-4.572a3.361,3.361,0,0,1,.378,1.608,3.325,3.325,0,0,1-.378,1.6,2.845,2.845,0,0,1-1.038,1.1,2.894,2.894,0,0,1-1.536.4,2.641,2.641,0,0,1-1.23-.276,2.121,2.121,0,0,1-.846-.78V2.64ZM24.54-.96a1.77,1.77,0,0,0,1.344-.558,2.034,2.034,0,0,0,.528-1.458,2.208,2.208,0,0,0-.24-1.044,1.806,1.806,0,0,0-.66-.714,1.819,1.819,0,0,0-.972-.258,1.742,1.742,0,0,0-1.338.564,2.053,2.053,0,0,0-.522,1.452A2.048,2.048,0,0,0,23.2-1.518,1.751,1.751,0,0,0,24.54-.96Zm4.548,3.6V-5.952h1.14l.132.924a2.733,2.733,0,0,1,.792-.744,2.358,2.358,0,0,1,1.3-.324,2.839,2.839,0,0,1,1.524.408A2.878,2.878,0,0,1,35.01-4.572a3.361,3.361,0,0,1,.378,1.608,3.325,3.325,0,0,1-.378,1.6,2.845,2.845,0,0,1-1.038,1.1,2.894,2.894,0,0,1-1.536.4,2.641,2.641,0,0,1-1.23-.276,2.121,2.121,0,0,1-.846-.78V2.64ZM32.22-.96a1.77,1.77,0,0,0,1.344-.558,2.034,2.034,0,0,0,.528-1.458,2.208,2.208,0,0,0-.24-1.044,1.806,1.806,0,0,0-.66-.714,1.819,1.819,0,0,0-.972-.258,1.742,1.742,0,0,0-1.338.564,2.053,2.053,0,0,0-.522,1.452,2.048,2.048,0,0,0,.522,1.458A1.751,1.751,0,0,0,32.22-.96Zm7.332,1.1A3.06,3.06,0,0,1,38-.246a2.773,2.773,0,0,1-1.062-1.086,3.3,3.3,0,0,1-.384-1.62A3.439,3.439,0,0,1,36.93-4.6a2.752,2.752,0,0,1,1.056-1.1,3.072,3.072,0,0,1,1.578-.4,2.9,2.9,0,0,1,1.524.39A2.758,2.758,0,0,1,42.1-4.668a2.891,2.891,0,0,1,.36,1.428q0,.12-.006.258t-.018.306H37.8a1.84,1.84,0,0,0,.57,1.314,1.732,1.732,0,0,0,1.182.45,1.588,1.588,0,0,0,.906-.246A1.491,1.491,0,0,0,41-1.824h1.272a2.7,2.7,0,0,1-.954,1.4A2.767,2.767,0,0,1,39.552.144Zm0-5.2a1.8,1.8,0,0,0-1.128.378,1.653,1.653,0,0,0-.6,1.134h3.36a1.519,1.519,0,0,0-.492-1.1A1.646,1.646,0,0,0,39.552-5.052ZM43.776,0V-5.952h1.14l.108,1.128a2.376,2.376,0,0,1,.87-.93,2.535,2.535,0,0,1,1.35-.342v1.332H46.9a2.412,2.412,0,0,0-.942.174,1.379,1.379,0,0,0-.66.588,2.248,2.248,0,0,0-.246,1.146V0Zm6.936.144a3,3,0,0,1-1.86-.552,2.067,2.067,0,0,1-.84-1.464H49.3a1.27,1.27,0,0,0,.456.7,1.452,1.452,0,0,0,.948.294,1.225,1.225,0,0,0,.84-.24.728.728,0,0,0,.264-.552.612.612,0,0,0-.366-.618,5.126,5.126,0,0,0-1.014-.294,7.679,7.679,0,0,1-1-.288,2.215,2.215,0,0,1-.828-.51,1.208,1.208,0,0,1-.33-.894,1.655,1.655,0,0,1,.6-1.3,2.478,2.478,0,0,1,1.68-.522,2.557,2.557,0,0,1,1.614.48,1.936,1.936,0,0,1,.726,1.356H51.66a.881.881,0,0,0-.354-.6,1.3,1.3,0,0,0-.786-.216,1.219,1.219,0,0,0-.744.2.611.611,0,0,0-.264.51.548.548,0,0,0,.366.492,4.745,4.745,0,0,0,.966.324,10.289,10.289,0,0,1,1.11.306,1.96,1.96,0,0,1,.822.51,1.4,1.4,0,0,1,.312.984A1.664,1.664,0,0,1,52.458-.4,2.627,2.627,0,0,1,50.712.144Z" transform="translate(908 457)" fill="#fff"/>
    <path id="Path_494" data-name="Path 494" d="M1973.743,6123h219.915" transform="translate(-1077 -5560)" fill="none" stroke="#fff" stroke-width="2"/>
    <path id="Polygon_1" data-name="Polygon 1" d="M5.5,0,11,10H0Z" transform="translate(887.743 568.5) rotate(-90)" fill="#fff"/>
    <g id="Group_289" data-name="Group 289" transform="translate(0 -2)">
      <path id="Path_495" data-name="Path 495" d="M1973.743,6123h20" transform="translate(-877.085 -5614.5)" fill="none" stroke="#fff" stroke-width="2"/>
      <path id="Polygon_2" data-name="Polygon 2" d="M5.5,0,11,10H0Z" transform="translate(1087.658 514) rotate(-90)" fill="#fff"/>
    </g>
    <g id="Group_288" data-name="Group 288" transform="translate(0 -2.501)">
      <path id="Path_496" data-name="Path 496" d="M1973.743,6123h20" transform="translate(-877.085 -5499.999)" fill="none" stroke="#fff" stroke-width="2"/>
      <path id="Polygon_3" data-name="Polygon 3" d="M5.5,0,11,10H0Z" transform="translate(1087.658 628.501) rotate(-90)" fill="#fff"/>
    </g>
    <g id="Group_292" data-name="Group 292" transform="translate(0 -1.851)">
      <g id="Group_290" data-name="Group 290" transform="translate(0 2)">
        <path id="Path_497" data-name="Path 497" d="M1986.615,6180.5h-75.022l-23.216-23.216" transform="translate(-1077 -5560)" fill="none" stroke="#fff" stroke-width="2"/>
        <path id="Polygon_4" data-name="Polygon 4" d="M5.5,0,11,10H0Z" transform="translate(803.981 598.026) rotate(-48)" fill="#fff"/>
      </g>
      <g id="Group_291" data-name="Group 291" transform="translate(803.981 508.851)">
        <path id="Path_497-2" data-name="Path 497" d="M1986.615,6157.285h-75.022l-23.216,23.216" transform="translate(-1880.981 -6157.285)" fill="none" stroke="#fff" stroke-width="2"/>
        <path id="Polygon_4-2" data-name="Polygon 4" d="M5.5,0,11,10H0Z" transform="translate(7.36 30.649) rotate(-132)" fill="#fff"/>
      </g>
    </g>
  </g>
</svg>
