<svg xmlns="http://www.w3.org/2000/svg" xmlns:xlink="http://www.w3.org/1999/xlink" width="403.039" height="288.92" viewBox="0 0 403.039 288.92"><defs><radialGradient id="a" cx="0.5" cy="0.5" r="0.5" gradientUnits="objectBoundingBox"><stop offset="0" stop-color="#0a0024"/><stop offset="0.402" stop-color="#0a0024" stop-opacity="0.902"/><stop offset="1" stop-color="#0a0024" stop-opacity="0"/></radialGradient><filter id="b" x="69.665" y="15.94" width="261" height="262" filterUnits="userSpaceOnUse"><feOffset dy="20" input="SourceAlpha"/><feGaussianBlur stdDeviation="30" result="c"/><feFlood flood-color="#fff" flood-opacity="0.102"/><feComposite operator="in" in2="c"/><feComposite in="SourceGraphic"/></filter><filter id="d" x="159.665" y="85.94" width="81" height="82" filterUnits="userSpaceOnUse"><feOffset dx="20" dy="-20" input="SourceAlpha"/><feGaussianBlur stdDeviation="10" result="e"/><feFlood flood-color="#abfffc" flood-opacity="0.251" result="f"/><feComposite operator="out" in="SourceGraphic" in2="e"/><feComposite operator="in" in="f"/><feComposite operator="in" in2="SourceGraphic"/></filter></defs><g transform="translate(-614.28 -31.425)"><g transform="translate(705.747 201.53) rotate(-30)" fill="none" stroke="#abfffc" stroke-width="1" opacity="0.2"><ellipse cx="106.307" cy="32.062" rx="106.307" ry="32.062" stroke="none"/><ellipse cx="106.307" cy="32.062" rx="105.807" ry="31.562" fill="none"/></g><g transform="translate(893.79 257.062) rotate(-150)" fill="none" stroke="#abfffc" stroke-width="1" opacity="0.5"><ellipse cx="106.307" cy="32.062" rx="106.307" ry="32.062" stroke="none"/><ellipse cx="106.307" cy="32.062" rx="105.807" ry="31.562" fill="none"/></g><g transform="translate(614.28 236.006) rotate(-30)" fill="none" stroke="#abfffc" stroke-width="1" opacity="0.5"><ellipse cx="204.581" cy="48.693" rx="204.581" ry="48.693" stroke="none"/><ellipse cx="204.581" cy="48.693" rx="204.081" ry="48.193" fill="none"/></g><g transform="translate(968.627 320.345) rotate(-150)" fill="none" stroke="#abfffc" stroke-width="1" opacity="0.25"><ellipse cx="204.581" cy="48.693" rx="204.581" ry="48.693" stroke="none"/><ellipse cx="204.581" cy="48.693" rx="204.081" ry="48.193" fill="none"/></g><rect width="229" height="155" rx="77.5" transform="translate(699.944 44.425)" opacity="0.9" fill="url(#a)"/><g transform="translate(773.575 117.283)"><g transform="matrix(1, 0, 0, 1, -159.29, -85.86)" filter="url(#b)"><ellipse cx="40.5" cy="41" rx="40.5" ry="41" transform="translate(159.66 85.94)" fill="#0a0024"/></g><g transform="matrix(1, 0, 0, 1, -159.29, -85.86)" filter="url(#d)"><ellipse cx="40.5" cy="41" rx="40.5" ry="41" transform="translate(159.66 85.94)" fill="#fff" opacity="0.75"/></g></g></g></svg>