<svg xmlns="http://www.w3.org/2000/svg" width="196.071" height="63.49" viewBox="0 0 196.071 63.49"><g transform="translate(-525 -3819)"><g transform="translate(547.101 3920.268)"><path d="M42.987-37.778a1.839,1.839,0,0,1-1.332-.556,1.793,1.793,0,0,1-.565-1.314V-52.1a8.48,8.48,0,0,1,2.668-6.271,9.15,9.15,0,0,1,12.753.015,8.783,8.783,0,0,1,2.653,6.288,8.783,8.783,0,0,1-2.653,6.288,8.776,8.776,0,0,1-6.386,2.609,7.685,7.685,0,0,1-5.19-1.544v5.063a1.794,1.794,0,0,1-.565,1.314,1.852,1.852,0,0,1-1.335.556Zm22.18,0a1.839,1.839,0,0,1-1.333-.556,1.794,1.794,0,0,1-.566-1.314V-52.1a8.468,8.468,0,0,1,2.668-6.271,9.151,9.151,0,0,1,12.753.015,8.79,8.79,0,0,1,2.649,6.288,8.79,8.79,0,0,1-2.649,6.288A8.782,8.782,0,0,1,72.3-43.167a7.7,7.7,0,0,1-5.193-1.544v5.063a1.781,1.781,0,0,1-.565,1.314,1.839,1.839,0,0,1-1.333.556Zm-30.284-22a2.342,2.342,0,0,0-2.33,2.33v2.019a7.8,7.8,0,0,1-7.765,7.765h0a7.8,7.8,0,0,1-7.764-7.764V-55.9A2.339,2.339,0,0,0,14.7-58.228h-.009a2.334,2.334,0,0,0-2.323,2.323v.472A12.484,12.484,0,0,0,24.788-43.01,12.484,12.484,0,0,0,37.211-55.433v-2.021a2.339,2.339,0,0,0-2.328-2.328h0Zm80.757-1.183a1.886,1.886,0,0,1,1.348.544,1.771,1.771,0,0,1,.549,1.3v.031a1.722,1.722,0,0,1-.549,1.286,1.873,1.873,0,0,1-1.348.544h-.895a3.025,3.025,0,0,0-2.177.863,2.886,2.886,0,0,0-.894,2.1v9.33a1.666,1.666,0,0,1-.566,1.286,1.851,1.851,0,0,1-1.332.544h-.047a1.851,1.851,0,0,1-1.333-.544,1.675,1.675,0,0,1-.562-1.286V-54.3a6.464,6.464,0,0,1,2.022-4.718,6.8,6.8,0,0,1,4.889-1.951Zm-12.229,8.771a1.8,1.8,0,0,1-.139.8,1.773,1.773,0,0,1-.376.544,1.788,1.788,0,0,1-1.342.565q-2.4.014-6.324.044-4.864.042-5.709.059a4.476,4.476,0,0,0,2.817,2.848,5.114,5.114,0,0,0,3.181.323,5.041,5.041,0,0,0,2.7-1.521,1.777,1.777,0,0,1,2.177-.435,1.822,1.822,0,0,1,1.1,1.357,1.73,1.73,0,0,1-.081,1.093,1.956,1.956,0,0,1-.382.562,8.547,8.547,0,0,1-4.684,2.612,9.132,9.132,0,0,1-10.324-5.507,8.791,8.791,0,0,1-.651-3.319,8.811,8.811,0,0,1,5.676-8.223A9.1,9.1,0,0,1,94.324-61a9.133,9.133,0,0,1,9.089,8.807ZM50.125-46.981a5.036,5.036,0,0,0,3.671-1.5A5.076,5.076,0,0,0,55.319-52.1,5.076,5.076,0,0,0,53.8-55.728a5.038,5.038,0,0,0-3.671-1.482,5.1,5.1,0,0,0-3.687,1.482,5.119,5.119,0,0,0-1.5,3.623,5.12,5.12,0,0,0,1.5,3.623,5.065,5.065,0,0,0,3.687,1.5Zm22.18,0a5.045,5.045,0,0,0,3.671-1.5A5.075,5.075,0,0,0,77.5-52.1a5.075,5.075,0,0,0-1.523-3.623,5.036,5.036,0,0,0-3.671-1.482,5.1,5.1,0,0,0-3.687,1.482A5.113,5.113,0,0,0,67.112-52.1a5.113,5.113,0,0,0,1.507,3.623,5.061,5.061,0,0,0,3.687,1.5Zm24.128-9.753a5.058,5.058,0,0,0-3.982-.1,4.941,4.941,0,0,0-2.833,2.73l-.044.1,9.6-.053a4.445,4.445,0,0,0-2.74-2.678ZM14.694-67.546h0a2.809,2.809,0,0,1,2.8,2.8,2.809,2.809,0,0,1-2.8,2.8,2.809,2.809,0,0,1-2.8-2.8A2.809,2.809,0,0,1,14.694-67.546ZM33.25-62.8a1.72,1.72,0,0,1-1.087-.814,1.744,1.744,0,0,1-.236-.876A1.745,1.745,0,0,1,32.8-66l2.789-1.609a1.241,1.241,0,0,1,.621-.167,1.247,1.247,0,0,1,1.241,1.241,1.241,1.241,0,0,1-.043.323,1.23,1.23,0,0,1-.578.755l-1.261.727s.767.168,1.5.323a1.255,1.255,0,0,1,.988,1.223,1.251,1.251,0,0,1-.043.326A1.2,1.2,0,0,1,36.576-62c-1.012-.245-2.466-.593-3.326-.8Z" fill="#fff" fill-rule="evenodd"/><path d="M263.386-52.683a9.013,9.013,0,0,1,2.774.43,1.777,1.777,0,0,1,1.355,1.849v.08a1.821,1.821,0,0,1-.781,1.547,1.915,1.915,0,0,1-1.116.383,2.156,2.156,0,0,1-.621-.1,5.158,5.158,0,0,0-1.61-.255,5.1,5.1,0,0,0-3.747,1.547,5.129,5.129,0,0,0-1.531,3.747,5.11,5.11,0,0,0,1.531,3.731,5.1,5.1,0,0,0,3.747,1.547,5.158,5.158,0,0,0,1.61-.255,2,2,0,0,1,.606-.1,1.937,1.937,0,0,1,1.132.383,1.836,1.836,0,0,1,.781,1.562,1.792,1.792,0,0,1-1.355,1.849,9.332,9.332,0,0,1-2.774.415A8.845,8.845,0,0,1,256.9-37.01,8.846,8.846,0,0,1,254.2-43.5a8.846,8.846,0,0,1,2.695-6.489A8.845,8.845,0,0,1,263.386-52.683Z" transform="translate(-134.743 -8.394)" fill="#fff"/><path d="M298.4-48.745a5.1,5.1,0,0,0-3.747,1.547,5.131,5.131,0,0,0-1.531,3.747,5.112,5.112,0,0,0,1.531,3.731,5.1,5.1,0,0,0,3.747,1.547,5.084,5.084,0,0,0,3.731-1.547,5.085,5.085,0,0,0,1.547-3.731,5.1,5.1,0,0,0-1.547-3.747A5.085,5.085,0,0,0,298.4-48.745Zm0-3.938a8.845,8.845,0,0,1,6.489,2.694,8.844,8.844,0,0,1,2.695,6.489,8.844,8.844,0,0,1-2.695,6.489,8.845,8.845,0,0,1-6.489,2.694,8.844,8.844,0,0,1-6.489-2.694,8.844,8.844,0,0,1-2.695-6.489,8.844,8.844,0,0,1,2.695-6.489A8.844,8.844,0,0,1,298.4-52.683Z" transform="translate(-154.217 -8.394)" fill="#fff"/><path d="M344.808-56.934a5.1,5.1,0,0,0-3.747,1.547,5.129,5.129,0,0,0-1.531,3.747,5.11,5.11,0,0,0,1.531,3.731,5.1,5.1,0,0,0,3.747,1.547,5.085,5.085,0,0,0,3.731-1.547,5.085,5.085,0,0,0,1.547-3.731,5.1,5.1,0,0,0-1.547-3.747A5.085,5.085,0,0,0,344.808-56.934Zm7.254-10.475a1.88,1.88,0,0,1,1.355.558,1.871,1.871,0,0,1,.574,1.371V-51.64a8.8,8.8,0,0,1-2.711,6.457,8.852,8.852,0,0,1-6.473,2.678,8.846,8.846,0,0,1-6.489-2.694,8.846,8.846,0,0,1-2.694-6.489,8.846,8.846,0,0,1,2.694-6.489,8.846,8.846,0,0,1,6.489-2.694,7.773,7.773,0,0,1,5.278,1.594v-6.2a1.871,1.871,0,0,1,.574-1.371,1.878,1.878,0,0,1,1.355-.558Z" transform="translate(-180.022 -0.206)" fill="#fff"/></g><path d="M5.038-2.266c0,.649-.44,1.012-1.188,1.012H2.3V-3.322H3.817C4.565-3.322,5.038-2.926,5.038-2.266Zm-.187-3.2c0,.627-.418.957-1.144.957H2.3V-6.435H3.707C4.433-6.435,4.851-6.083,4.851-5.467ZM6.6-2.079A1.862,1.862,0,0,0,5.115-3.938,1.77,1.77,0,0,0,6.424-5.7c0-1.144-.891-1.98-2.5-1.98H.759V0H4.07C5.665,0,6.6-.858,6.6-2.079Zm3.828.242L8.855-6.094H7.128L9.57-.154,8.25,2.882H9.889l3.773-8.976H12.023Z" transform="translate(536.051 3840.618) rotate(-45)" fill="#f09"/><g transform="translate(525 3819)" fill="none" stroke="#d600ff" stroke-width="1"><path d="M14,0h0A14,14,0,0,1,28,14V28a0,0,0,0,1,0,0H14A14,14,0,0,1,0,14v0A14,14,0,0,1,14,0Z" stroke="none"/><path d="M14,.5h0A13.5,13.5,0,0,1,27.5,14V27.5a0,0,0,0,1,0,0H14A13.5,13.5,0,0,1,.5,14v0A13.5,13.5,0,0,1,14,.5Z" fill="none"/></g></g></svg>