<svg xmlns="http://www.w3.org/2000/svg" width="40" height="40" viewBox="0 0 40 40"><g transform="translate(0 0)"><path d="M8,1A7.008,7.008,0,0,0,1,8V32a7.008,7.008,0,0,0,7,7H32a7.008,7.008,0,0,0,7-7V8a7.008,7.008,0,0,0-7-7H8M8,0H32a8,8,0,0,1,8,8V32a8,8,0,0,1-8,8H8a8,8,0,0,1-8-8V8A8,8,0,0,1,8,0Z" fill="#fff" opacity="0.25"/></g><g transform="translate(2.488 3.572)"><g transform="translate(6.22 3.843)"><path d="M4.95,7.113A5.76,5.76,0,0,1,2.9,6.76,4.835,4.835,0,0,1,.034,3.8a.861.861,0,0,1,1.654-.482A3.091,3.091,0,0,0,3.54,5.158c1.282.469,3.718.447,8.039-2.326C15.454.346,18.758-.51,21.4.29a5.757,5.757,0,0,1,3.524,2.921.861.861,0,0,1-1.579.69,4.023,4.023,0,0,0-2.481-1.974c-2.1-.618-4.994.2-8.357,2.354C9.574,6.166,7.041,7.113,4.95,7.113Z" transform="translate(0 21.649) rotate(-60)" fill="#fff"/><rect width="12.271" height="1.753" rx="0.877" transform="translate(3.091 10.295)" fill="#fff"/></g><g transform="translate(18.272 18.357)"><path d="M8376.115,2288.024a3.423,3.423,0,0,1-1.2-.619,3.969,3.969,0,0,1-.911-1,4.682,4.682,0,0,1-.642-1.645,6.835,6.835,0,0,1-.127-1.338,6.15,6.15,0,0,1,.431-2.356,4.64,4.64,0,0,1,.966-1.48,3.951,3.951,0,0,1,1.449-.967l.266.819h0a3.146,3.146,0,0,0-1.132.782,4.472,4.472,0,0,0-1.122,3.2v0a6.034,6.034,0,0,0,.112,1.17,3.42,3.42,0,0,0,1.2,2.1,2.7,2.7,0,0,0,.905.487h0Z" transform="translate(-8373.237 -2278.6)" fill="#fff"/><path d="M8373.771,2287.923l-.2-.837h0a2.691,2.691,0,0,0,.905-.487,3.419,3.419,0,0,0,1.2-2.1,5.969,5.969,0,0,0,.111-1.171h0a4.451,4.451,0,0,0-1.152-3.235,3.14,3.14,0,0,0-1.1-.75.431.431,0,1,1,.265-.819,3.932,3.932,0,0,1,1.45.968,4.617,4.617,0,0,1,.966,1.48,6.148,6.148,0,0,1,.431,2.356,6.913,6.913,0,0,1-.128,1.338,4.684,4.684,0,0,1-.641,1.644,3.975,3.975,0,0,1-.91,1A3.436,3.436,0,0,1,8373.771,2287.923Z" transform="translate(-8366.348 -2278.499)" fill="#fff"/></g><g transform="translate(21.029 20.598)"><path d="M8292.394,2318.274a.431.431,0,0,1-.3-.126l-3.933-3.933a.431.431,0,0,1,.609-.609l3.933,3.934a.431.431,0,0,1-.3.735Z" transform="translate(-8288.03 -2313.48)" fill="#fff"/><path d="M8288.461,2318.274a.431.431,0,0,1-.3-.735l3.934-3.934a.431.431,0,0,1,.609.609l-3.934,3.933A.43.43,0,0,1,8288.461,2318.274Z" transform="translate(-8288.03 -2313.48)" fill="#fff"/></g></g></svg>