<svg xmlns="http://www.w3.org/2000/svg" width="280.671" height="52.12" viewBox="0 0 280.671 52.12"><g transform="translate(-119.87 91.961)"><path d="M180.691-69.516v18.311a3.509,3.509,0,0,0,.894,2.683,4.394,4.394,0,0,0,3.014.828H188.9v7.816h-5.829q-11.726,0-11.725-11.393V-69.516h-4.372v-7.618h4.372V-85.65h9.34v8.517H188.9v7.618Z" fill="#fff"/><path d="M307.275-39.878h9.274V-77.133h-9.274Z" fill="#fff"/><path d="M212.2-77.171A18.655,18.655,0,0,1,230.85-58.525,18.655,18.655,0,0,1,212.2-39.878a18.655,18.655,0,0,1-18.647-18.646A18.655,18.655,0,0,1,212.2-77.171Zm0,8.524a10.127,10.127,0,0,1,10.122,10.122A10.127,10.127,0,0,1,212.2-48.4a10.127,10.127,0,0,1-10.123-10.122A10.128,10.128,0,0,1,212.2-68.647Z" fill="#fff" fill-rule="evenodd"/><path d="M381.894-77.171a18.655,18.655,0,0,1,18.647,18.647,18.655,18.655,0,0,1-18.647,18.646,18.655,18.655,0,0,1-18.646-18.646A18.655,18.655,0,0,1,381.894-77.171Zm0,8.524a10.128,10.128,0,0,1,10.123,10.122A10.127,10.127,0,0,1,381.894-48.4a10.127,10.127,0,0,1-10.122-10.122A10.127,10.127,0,0,1,381.894-68.647Z" fill="#fff" fill-rule="evenodd"/><path d="M358.545-50.505a18.657,18.657,0,0,1-16.836,10.627,18.655,18.655,0,0,1-18.646-18.646,18.655,18.655,0,0,1,18.646-18.647,18.654,18.654,0,0,1,16.627,10.2l-8.3,2.685a10.114,10.114,0,0,0-8.324-4.364,10.127,10.127,0,0,0-10.122,10.122A10.127,10.127,0,0,0,341.709-48.4a10.118,10.118,0,0,0,8.532-4.677Z" fill="#fff" fill-rule="evenodd"/><path d="M311.967-91.961a5.688,5.688,0,0,1,5.685,5.685,5.688,5.688,0,0,1-5.685,5.685,5.688,5.688,0,0,1-5.685-5.685A5.688,5.688,0,0,1,311.967-91.961Z" fill="#fff" fill-rule="evenodd"/><path d="M-9032.5-2674.5v-20.723a8.583,8.583,0,0,0-8.583-8.583,8.582,8.582,0,0,0-8.581,8.583v20.723h-8.652v-20.723a8.584,8.584,0,0,0-8.581-8.583h0a8.582,8.582,0,0,0-8.581,8.583v20.723h-8.654v-37.293h8.654v2.152a17.152,17.152,0,0,1,8.51-2.259h0a17.153,17.153,0,0,1,12.135,5.027c.27.267.524.542.773.823.246-.281.5-.556.771-.823a17.159,17.159,0,0,1,12.136-5.027h0a17.163,17.163,0,0,1,12.138,5.027,17.166,17.166,0,0,1,5.027,12.138v20.236Z" transform="translate(9322.376 2634.66)" fill="#fff"/><path d="M150.712-48.587h-18.2L129.5-39.878H119.87L136.306-85.65h10.673l16.436,45.772h-9.691Zm-2.488-7.334L141.61-75.042,135-55.921Z" fill="#fff"/></g></svg>