<?xml version="1.0" encoding="UTF-8" standalone="no"?>
<!DOCTYPE svg PUBLIC "-//W3C//DTD SVG 1.1//EN" "http://www.w3.org/Graphics/SVG/1.1/DTD/svg11.dtd">
<svg width="100%" height="100%" viewBox="0 0 460 35" version="1.1" xmlns="http://www.w3.org/2000/svg" xmlns:xlink="http://www.w3.org/1999/xlink" xml:space="preserve" xmlns:serif="http://www.serif.com/" style="fill-rule:evenodd;clip-rule:evenodd;stroke-linejoin:round;stroke-miterlimit:2;">
    <g transform="matrix(1,0,0,1,-132.73,-80.567)">
        <g id="step-1">
            <g transform="matrix(5.22727,0,0,0.686275,-734.997,-207.668)">
                <rect x="166" y="420" width="88" height="51" style="fill:rgb(43,239,179);fill-opacity:0;"/>
            </g>
            <g transform="matrix(1,0,0,1,132.73,90.6144)">
                <g id="step-11" serif:id="step-1">
                    <text x="0px" y="12px" style="font-family:'RobotoMono-Regular', 'Roboto Mono', monospace;font-size:16px;fill:rgb(255,130,130);">i<tspan x="10.802px 21.603px 32.405px 43.206px 54.008px " y="12px 12px 12px 12px 12px ">mport</tspan></text>
                    <text x="75.611px" y="12px" style="font-family:'RobotoMono-Regular', 'Roboto Mono', monospace;font-size:16px;fill:rgb(178,178,178);">{</text>
                    <text x="97.214px" y="12px" style="font-family:'RobotoMono-Regular', 'Roboto Mono', monospace;font-size:16px;fill:rgb(255,233,162);">c</text>
                    <text x="118.817px" y="12px" style="font-family:'RobotoMono-Regular', 'Roboto Mono', monospace;font-size:16px;fill:rgb(178,178,178);">}</text>
                    <text x="140.42px" y="12px" style="font-family:'RobotoMono-Regular', 'Roboto Mono', monospace;font-size:16px;fill:rgb(255,130,130);"><tspan x="140.42px 151.222px 162.023px 172.825px " y="12px 12px 12px 12px ">from</tspan></text>
                    <text x="194.428px" y="12px" style="font-family:'RobotoMono-Regular', 'Roboto Mono', monospace;font-size:16px;fill:rgb(178,178,178);">&quot;</text>
                    <text x="205.23px" y="12px" style="font-family:'RobotoMono-Regular', 'Roboto Mono', monospace;font-size:16px;fill:white;">a<tspan x="216.031px 226.833px 237.634px 248.436px 259.237px 270.039px " y="12px 12px 12px 12px 12px 12px ">tomico</tspan></text>
                    <text x="280.841px" y="12px" style="font-family:'RobotoMono-Regular', 'Roboto Mono', monospace;font-size:16px;fill:rgb(178,178,178);">&quot;</text>
                </g>
            </g>
        </g>
    </g>
</svg>
